# Wavefront OBJ file written 2026-08-03T01:34:50
o ensamble_todo_v2_cfd_normal_0

# points : 881
# faces  : 1762
# zones  : 1
#   0  patch0  (nFaces: 1762)

# <points count="881">
v 0.469014 -0.0395041 0.00581379
v 0.469014 -0.0399296 -4.62652e-32
v 0.469014 -0.0367606 -4.62652e-32
v 0.469014 -0.0395041 -0.00581379
v 0.469014 -0.0363297 -0.00561147
v 0.469014 -0.0382366 -0.0115037
v 0.469014 -0.0350474 -0.0110914
v 0.469014 -0.0361542 -0.0169484
v 0.469014 -0.0329436 -0.0163114
v 0.469014 -0.0333012 -0.0220319
v 0.469014 -0.0300675 -0.021149
v 0.469014 -0.0297384 -0.0266458
v 0.469014 -0.0264868 -0.025491
v 0.469014 -0.0255419 -0.0306918
v 0.469014 -0.0222852 -0.0292354
v 0.469014 -0.0208009 -0.0340836
v 0.469014 -0.0175612 -0.0322946
v 0.469014 -0.0156166 -0.036749
v 0.469014 -0.0124257 -0.0345968
v 0.469014 -0.0100995 -0.0386312
v 0.469014 -0.00699888 -0.0360881
v 0.469014 -0.00436715 -0.03969
v 0.469014 -0.00140803 -0.0367336
v 0.469014 0.00145831 -0.0399029
v 0.469014 0.00421583 -0.036518
v 0.469014 0.00725268 -0.0392654
v 0.469014 0.00974087 -0.0354465
v 0.469014 0.0128925 -0.0377909
v 0.469014 0.0150376 -0.0335441
v 0.469014 0.0182575 -0.0355111
v 0.469014 0.0199818 -0.0308555
v 0.469014 0.0232334 -0.0324743
v 0.469014 0.0244577 -0.0274437
v 0.469014 0.0277141 -0.0287454
v 0.469014 0.0283604 -0.0233886
v 0.469014 0.0316041 -0.0244039
v 0.469014 0.0315983 -0.0187853
v 0.469014 0.0348206 -0.0195422
v 0.469014 0.0340955 -0.0137417
v 0.469014 0.0372949 -0.0142641
v 0.469014 0.0357936 -0.00837602
v 0.469014 0.0389743 -0.0086819
v 0.469014 0.0366527 -0.00281399
v 0.469014 0.0398231 -0.00291467
v 0.469014 0.0398231 0.00291467
v 0.469014 0.0366527 0.00281399
v 0.469014 0.0389743 0.0086819
v 0.469014 0.0357936 0.00837602
v 0.469014 0.0372949 0.0142641
v 0.469014 0.0340955 0.0137417
v 0.469014 0.0348206 0.0195422
v 0.469014 0.0315983 0.0187853
v 0.469014 0.0316041 0.0244039
v 0.469014 0.0283604 0.0233886
v 0.469014 0.0277141 0.0287454
v 0.469014 0.0244577 0.0274437
v 0.469014 0.0232334 0.0324743
v 0.469014 0.0199818 0.0308555
v 0.469014 0.0182575 0.0355111
v 0.469014 0.0150376 0.0335441
v 0.469014 0.0128925 0.0377909
v 0.469014 0.00974087 0.0354465
v 0.469014 0.00725268 0.0392654
v 0.469014 0.00421583 0.036518
v 0.469014 0.00145831 0.0399029
v 0.469014 -0.00140803 0.0367336
v 0.469014 -0.00436715 0.03969
v 0.469014 -0.00699888 0.0360881
v 0.469014 -0.0100995 0.0386312
v 0.469014 -0.0124257 0.0345968
v 0.469014 -0.0156166 0.036749
v 0.469014 -0.0175612 0.0322946
v 0.469014 -0.0208009 0.0340836
v 0.469014 -0.0222852 0.0292354
v 0.469014 -0.0255419 0.0306918
v 0.469014 -0.0264868 0.025491
v 0.469014 -0.0297384 0.0266458
v 0.469014 -0.0300675 0.021149
v 0.469014 -0.0333012 0.0220319
v 0.469014 -0.0329436 0.0163114
v 0.469014 -0.0361542 0.0169484
v 0.469014 -0.0350474 0.0110914
v 0.469014 -0.0382366 0.0115037
v 0.469014 -0.0363297 0.00561147
v 0.358099 -0.0363297 -0.00561147
v 0.358099 -0.0367606 4.50187e-18
v 0.358099 -0.0363297 0.00561147
v 0.358099 -0.0350474 0.0110914
v 0.358099 -0.0329436 0.0163114
v 0.358099 -0.0300675 0.021149
v 0.358099 -0.0264868 0.025491
v 0.358099 -0.0222852 0.0292354
v 0.358099 -0.0175612 0.0322946
v 0.358099 -0.0124257 0.0345968
v 0.358099 -0.00699888 0.0360881
v 0.358099 -0.00140803 0.0367336
v 0.358099 0.00421583 0.036518
v 0.358099 0.00974087 0.0354465
v 0.358099 0.0150376 0.0335441
v 0.358099 0.0199818 0.0308555
v 0.358099 0.0244577 0.0274437
v 0.358099 0.0283604 0.0233886
v 0.358099 0.0315983 0.0187853
v 0.358099 0.0340955 0.0137417
v 0.358099 0.0357936 0.00837602
v 0.358099 0.0366527 0.00281399
v 0.358099 0.0366527 -0.00281399
v 0.358099 0.0357936 -0.00837602
v 0.358099 0.0340955 -0.0137417
v 0.358099 0.0315983 -0.0187853
v 0.358099 0.0283604 -0.0233886
v 0.358099 0.0244577 -0.0274437
v 0.358099 0.0199818 -0.0308555
v 0.358099 0.0150376 -0.0335441
v 0.358099 0.00974087 -0.0354465
v 0.358099 0.00421583 -0.036518
v 0.358099 -0.00140803 -0.0367336
v 0.358099 -0.00699888 -0.0360881
v 0.358099 -0.0124257 -0.0345968
v 0.358099 -0.0175612 -0.0322946
v 0.358099 -0.0222852 -0.0292354
v 0.358099 -0.0264868 -0.025491
v 0.358099 -0.0300675 -0.021149
v 0.358099 -0.0329436 -0.0163114
v 0.358099 -0.0350474 -0.0110914
v -0.640141 -0.0363297 0.00561147
v -0.529225 -0.0363297 0.00561147
v -0.640141 -0.0367606 -4.62652e-32
v -0.529225 -0.0367606 4.50187e-18
v -0.640141 -0.0363297 -0.00561147
v -0.529225 -0.0363297 -0.00561147
v -0.640141 -0.0350474 -0.0110914
v -0.529225 -0.0350474 -0.0110914
v -0.640141 -0.0329436 -0.0163114
v -0.529225 -0.0329436 -0.0163114
v -0.640141 -0.0300675 -0.021149
v -0.529225 -0.0300675 -0.021149
v -0.640141 -0.0264868 -0.025491
v -0.529225 -0.0264868 -0.025491
v -0.640141 -0.0222852 -0.0292354
v -0.529225 -0.0222852 -0.0292354
v -0.640141 -0.0175612 -0.0322946
v -0.529225 -0.0175612 -0.0322946
v -0.640141 -0.0124257 -0.0345968
v -0.529225 -0.0124257 -0.0345968
v -0.640141 -0.00699888 -0.0360881
v -0.529225 -0.00699888 -0.0360881
v -0.640141 -0.00140803 -0.0367336
v -0.529225 -0.00140803 -0.0367336
v -0.640141 0.00421583 -0.036518
v -0.529225 0.00421583 -0.036518
v -0.640141 0.00974087 -0.0354465
v -0.529225 0.00974087 -0.0354465
v -0.640141 0.0150376 -0.0335441
v -0.529225 0.0150376 -0.0335441
v -0.640141 0.0199818 -0.0308555
v -0.529225 0.0199818 -0.0308555
v -0.640141 0.0244577 -0.0274437
v -0.529225 0.0244577 -0.0274437
v -0.640141 0.0283604 -0.0233886
v -0.529225 0.0283604 -0.0233886
v -0.640141 0.0315983 -0.0187853
v -0.529225 0.0315983 -0.0187853
v -0.640141 0.0340955 -0.0137417
v -0.529225 0.0340955 -0.0137417
v -0.640141 0.0357936 -0.00837602
v -0.529225 0.0357936 -0.00837602
v -0.640141 0.0366527 -0.00281399
v -0.529225 0.0366527 -0.00281399
v -0.640141 0.0366527 0.00281399
v -0.529225 0.0366527 0.00281399
v -0.640141 0.0357936 0.00837602
v -0.529225 0.0357936 0.00837602
v -0.640141 0.0340955 0.0137417
v -0.529225 0.0340955 0.0137417
v -0.640141 0.0315983 0.0187853
v -0.529225 0.0315983 0.0187853
v -0.640141 0.0283604 0.0233886
v -0.529225 0.0283604 0.0233886
v -0.640141 0.0244577 0.0274437
v -0.529225 0.0244577 0.0274437
v -0.640141 0.0199818 0.0308555
v -0.529225 0.0199818 0.0308555
v -0.640141 0.0150376 0.0335441
v -0.529225 0.0150376 0.0335441
v -0.640141 0.00974087 0.0354465
v -0.529225 0.00974087 0.0354465
v -0.640141 0.00421583 0.036518
v -0.529225 0.00421583 0.036518
v -0.640141 -0.00140803 0.0367336
v -0.529225 -0.00140803 0.0367336
v -0.640141 -0.00699888 0.0360881
v -0.529225 -0.00699888 0.0360881
v -0.640141 -0.0124257 0.0345968
v -0.529225 -0.0124257 0.0345968
v -0.640141 -0.0175612 0.0322946
v -0.529225 -0.0175612 0.0322946
v -0.640141 -0.0222852 0.0292354
v -0.529225 -0.0222852 0.0292354
v -0.640141 -0.0264868 0.025491
v -0.529225 -0.0264868 0.025491
v -0.640141 -0.0300675 0.021149
v -0.529225 -0.0300675 0.021149
v -0.640141 -0.0329436 0.0163114
v -0.529225 -0.0329436 0.0163114
v -0.640141 -0.0350474 0.0110914
v -0.529225 -0.0350474 0.0110914
v 0.247183 -0.0367606 4.50187e-18
v 0.247183 -0.0363297 0.00561147
v 0.247183 -0.0350474 0.0110914
v 0.247183 -0.0329436 0.0163114
v 0.247183 -0.0300675 0.021149
v 0.247183 -0.0264868 0.025491
v 0.247183 -0.0222852 0.0292354
v 0.247183 -0.0175612 0.0322946
v 0.247183 -0.0124257 0.0345968
v 0.247183 -0.00699888 0.0360881
v 0.247183 -0.00140803 0.0367336
v 0.247183 0.00421583 0.036518
v 0.247183 0.00974087 0.0354465
v 0.247183 0.0150376 0.0335441
v 0.247183 0.0199818 0.0308555
v 0.247183 0.0244577 0.0274437
v 0.247183 0.0283604 0.0233886
v 0.247183 0.0315983 0.0187853
v 0.247183 0.0340955 0.0137417
v 0.247183 0.0357936 0.00837602
v 0.247183 0.0366527 0.00281399
v 0.247183 0.0366527 -0.00281399
v 0.247183 0.0357936 -0.00837602
v 0.247183 0.0340955 -0.0137417
v 0.247183 0.0315983 -0.0187853
v 0.247183 0.0283604 -0.0233886
v 0.247183 0.0244577 -0.0274437
v 0.247183 0.0199818 -0.0308555
v 0.247183 0.0150376 -0.0335441
v 0.247183 0.00974087 -0.0354465
v 0.247183 0.00421583 -0.036518
v 0.247183 -0.00140803 -0.0367336
v 0.247183 -0.00699888 -0.0360881
v 0.247183 -0.0124257 -0.0345968
v 0.247183 -0.0175612 -0.0322946
v 0.247183 -0.0222852 -0.0292354
v 0.247183 -0.0264868 -0.025491
v 0.247183 -0.0300675 -0.021149
v 0.247183 -0.0329436 -0.0163114
v 0.247183 -0.0350474 -0.0110914
v 0.247183 -0.0363297 -0.00561147
v 0.136268 -0.0367606 4.50187e-18
v 0.136268 -0.0363297 0.00561147
v 0.136268 -0.0350474 0.0110914
v 0.136268 -0.0329436 0.0163114
v 0.136268 -0.0300675 0.021149
v 0.136268 -0.0264868 0.025491
v 0.136268 -0.0222852 0.0292354
v 0.136268 -0.0175612 0.0322946
v 0.136268 -0.0124257 0.0345968
v 0.136268 -0.00699888 0.0360881
v 0.136268 -0.00140803 0.0367336
v 0.136268 0.00421583 0.036518
v 0.136268 0.00974087 0.0354465
v 0.136268 0.0150376 0.0335441
v 0.136268 0.0199818 0.0308555
v 0.136268 0.0244577 0.0274437
v 0.136268 0.0283604 0.0233886
v 0.136268 0.0315983 0.0187853
v 0.136268 0.0340955 0.0137417
v 0.136268 0.0357936 0.00837602
v 0.136268 0.0366527 0.00281399
v 0.136268 0.0366527 -0.00281399
v 0.136268 0.0357936 -0.00837602
v 0.136268 0.0340955 -0.0137417
v 0.136268 0.0315983 -0.0187853
v 0.136268 0.0283604 -0.0233886
v 0.136268 0.0244577 -0.0274437
v 0.136268 0.0199818 -0.0308555
v 0.136268 0.0150376 -0.0335441
v 0.136268 0.00974087 -0.0354465
v 0.136268 0.00421583 -0.036518
v 0.136268 -0.00140803 -0.0367336
v 0.136268 -0.00699888 -0.0360881
v 0.136268 -0.0124257 -0.0345968
v 0.136268 -0.0175612 -0.0322946
v 0.136268 -0.0222852 -0.0292354
v 0.136268 -0.0264868 -0.025491
v 0.136268 -0.0300675 -0.021149
v 0.136268 -0.0329436 -0.0163114
v 0.136268 -0.0350474 -0.0110914
v 0.136268 -0.0363297 -0.00561147
v 0.0253521 -0.0367606 4.50187e-18
v 0.0253521 -0.0363297 0.00561147
v 0.0253521 -0.0350474 0.0110914
v 0.0253521 -0.0329436 0.0163114
v 0.0253521 -0.0300675 0.021149
v 0.0253521 -0.0264868 0.025491
v 0.0253521 -0.0222852 0.0292354
v 0.0253521 -0.0175612 0.0322946
v 0.0253521 -0.0124257 0.0345968
v 0.0253521 -0.00699888 0.0360881
v 0.0253521 -0.00140803 0.0367336
v 0.0253521 0.00421583 0.036518
v 0.0253521 0.00974087 0.0354465
v 0.0253521 0.0150376 0.0335441
v 0.0253521 0.0199818 0.0308555
v 0.0253521 0.0244577 0.0274437
v 0.0253521 0.0283604 0.0233886
v 0.0253521 0.0315983 0.0187853
v 0.0253521 0.0340955 0.0137417
v 0.0253521 0.0357936 0.00837602
v 0.0253521 0.0366527 0.00281399
v 0.0253521 0.0366527 -0.00281399
v 0.0253521 0.0357936 -0.00837602
v 0.0253521 0.0340955 -0.0137417
v 0.0253521 0.0315983 -0.0187853
v 0.0253521 0.0283604 -0.0233886
v 0.0253521 0.0244577 -0.0274437
v 0.0253521 0.0199818 -0.0308555
v 0.0253521 0.0150376 -0.0335441
v 0.0253521 0.00974087 -0.0354465
v 0.0253521 0.00421583 -0.036518
v 0.0253521 -0.00140803 -0.0367336
v 0.0253521 -0.00699888 -0.0360881
v 0.0253521 -0.0124257 -0.0345968
v 0.0253521 -0.0175612 -0.0322946
v 0.0253521 -0.0222852 -0.0292354
v 0.0253521 -0.0264868 -0.025491
v 0.0253521 -0.0300675 -0.021149
v 0.0253521 -0.0329436 -0.0163114
v 0.0253521 -0.0350474 -0.0110914
v 0.0253521 -0.0363297 -0.00561147
v -0.0855634 -0.0367606 4.50187e-18
v -0.0855634 -0.0363297 0.00561147
v -0.0855634 -0.0350474 0.0110914
v -0.0855634 -0.0329436 0.0163114
v -0.0855634 -0.0300675 0.021149
v -0.0855634 -0.0264868 0.025491
v -0.0855634 -0.0222852 0.0292354
v -0.0855634 -0.0175612 0.0322946
v -0.0855634 -0.0124257 0.0345968
v -0.0855634 -0.00699888 0.0360881
v -0.0855634 -0.00140803 0.0367336
v -0.0855634 0.00421583 0.036518
v -0.0855634 0.00974087 0.0354465
v -0.0855634 0.0150376 0.0335441
v -0.0855634 0.0199818 0.0308555
v -0.0855634 0.0244577 0.0274437
v -0.0855634 0.0283604 0.0233886
v -0.0855634 0.0315983 0.0187853
v -0.0855634 0.0340955 0.0137417
v -0.0855634 0.0357936 0.00837602
v -0.0855634 0.0366527 0.00281399
v -0.0855634 0.0366527 -0.00281399
v -0.0855634 0.0357936 -0.00837602
v -0.0855634 0.0340955 -0.0137417
v -0.0855634 0.0315983 -0.0187853
v -0.0855634 0.0283604 -0.0233886
v -0.0855634 0.0244577 -0.0274437
v -0.0855634 0.0199818 -0.0308555
v -0.0855634 0.0150376 -0.0335441
v -0.0855634 0.00974087 -0.0354465
v -0.0855634 0.00421583 -0.036518
v -0.0855634 -0.00140803 -0.0367336
v -0.0855634 -0.00699888 -0.0360881
v -0.0855634 -0.0124257 -0.0345968
v -0.0855634 -0.0175612 -0.0322946
v -0.0855634 -0.0222852 -0.0292354
v -0.0855634 -0.0264868 -0.025491
v -0.0855634 -0.0300675 -0.021149
v -0.0855634 -0.0329436 -0.0163114
v -0.0855634 -0.0350474 -0.0110914
v -0.0855634 -0.0363297 -0.00561147
v -0.196479 -0.0367606 4.50187e-18
v -0.196479 -0.0363297 0.00561147
v -0.196479 -0.0350474 0.0110914
v -0.196479 -0.0329436 0.0163114
v -0.196479 -0.0300675 0.021149
v -0.196479 -0.0264868 0.025491
v -0.196479 -0.0222852 0.0292354
v -0.196479 -0.0175612 0.0322946
v -0.196479 -0.0124257 0.0345968
v -0.196479 -0.00699888 0.0360881
v -0.196479 -0.00140803 0.0367336
v -0.196479 0.00421583 0.036518
v -0.196479 0.00974087 0.0354465
v -0.196479 0.0150376 0.0335441
v -0.196479 0.0199818 0.0308555
v -0.196479 0.0244577 0.0274437
v -0.196479 0.0283604 0.0233886
v -0.196479 0.0315983 0.0187853
v -0.196479 0.0340955 0.0137417
v -0.196479 0.0357936 0.00837602
v -0.196479 0.0366527 0.00281399
v -0.196479 0.0366527 -0.00281399
v -0.196479 0.0357936 -0.00837602
v -0.196479 0.0340955 -0.0137417
v -0.196479 0.0315983 -0.0187853
v -0.196479 0.0283604 -0.0233886
v -0.196479 0.0244577 -0.0274437
v -0.196479 0.0199818 -0.0308555
v -0.196479 0.0150376 -0.0335441
v -0.196479 0.00974087 -0.0354465
v -0.196479 0.00421583 -0.036518
v -0.196479 -0.00140803 -0.0367336
v -0.196479 -0.00699888 -0.0360881
v -0.196479 -0.0124257 -0.0345968
v -0.196479 -0.0175612 -0.0322946
v -0.196479 -0.0222852 -0.0292354
v -0.196479 -0.0264868 -0.025491
v -0.196479 -0.0300675 -0.021149
v -0.196479 -0.0329436 -0.0163114
v -0.196479 -0.0350474 -0.0110914
v -0.196479 -0.0363297 -0.00561147
v -0.307394 -0.0367606 4.50187e-18
v -0.307394 -0.0363297 0.00561147
v -0.307394 -0.0350474 0.0110914
v -0.307394 -0.0329436 0.0163114
v -0.307394 -0.0300675 0.021149
v -0.307394 -0.0264868 0.025491
v -0.307394 -0.0222852 0.0292354
v -0.307394 -0.0175612 0.0322946
v -0.307394 -0.0124257 0.0345968
v -0.307394 -0.00699888 0.0360881
v -0.307394 -0.00140803 0.0367336
v -0.307394 0.00421583 0.036518
v -0.307394 0.00974087 0.0354465
v -0.307394 0.0150376 0.0335441
v -0.307394 0.0199818 0.0308555
v -0.307394 0.0244577 0.0274437
v -0.307394 0.0283604 0.0233886
v -0.307394 0.0315983 0.0187853
v -0.307394 0.0340955 0.0137417
v -0.307394 0.0357936 0.00837602
v -0.307394 0.0366527 0.00281399
v -0.307394 0.0366527 -0.00281399
v -0.307394 0.0357936 -0.00837602
v -0.307394 0.0340955 -0.0137417
v -0.307394 0.0315983 -0.0187853
v -0.307394 0.0283604 -0.0233886
v -0.307394 0.0244577 -0.0274437
v -0.307394 0.0199818 -0.0308555
v -0.307394 0.0150376 -0.0335441
v -0.307394 0.00974087 -0.0354465
v -0.307394 0.00421583 -0.036518
v -0.307394 -0.00140803 -0.0367336
v -0.307394 -0.00699888 -0.0360881
v -0.307394 -0.0124257 -0.0345968
v -0.307394 -0.0175612 -0.0322946
v -0.307394 -0.0222852 -0.0292354
v -0.307394 -0.0264868 -0.025491
v -0.307394 -0.0300675 -0.021149
v -0.307394 -0.0329436 -0.0163114
v -0.307394 -0.0350474 -0.0110914
v -0.307394 -0.0363297 -0.00561147
v -0.41831 -0.0367606 4.50187e-18
v -0.41831 -0.0363297 0.00561147
v -0.41831 -0.0350474 0.0110914
v -0.41831 -0.0329436 0.0163114
v -0.41831 -0.0300675 0.021149
v -0.41831 -0.0264868 0.025491
v -0.41831 -0.0222852 0.0292354
v -0.41831 -0.0175612 0.0322946
v -0.41831 -0.0124257 0.0345968
v -0.41831 -0.00699888 0.0360881
v -0.41831 -0.00140803 0.0367336
v -0.41831 0.00421583 0.036518
v -0.41831 0.00974087 0.0354465
v -0.41831 0.0150376 0.0335441
v -0.41831 0.0199818 0.0308555
v -0.41831 0.0244577 0.0274437
v -0.41831 0.0283604 0.0233886
v -0.41831 0.0315983 0.0187853
v -0.41831 0.0340955 0.0137417
v -0.41831 0.0357936 0.00837602
v -0.41831 0.0366527 0.00281399
v -0.41831 0.0366527 -0.00281399
v -0.41831 0.0357936 -0.00837602
v -0.41831 0.0340955 -0.0137417
v -0.41831 0.0315983 -0.0187853
v -0.41831 0.0283604 -0.0233886
v -0.41831 0.0244577 -0.0274437
v -0.41831 0.0199818 -0.0308555
v -0.41831 0.0150376 -0.0335441
v -0.41831 0.00974087 -0.0354465
v -0.41831 0.00421583 -0.036518
v -0.41831 -0.00140803 -0.0367336
v -0.41831 -0.00699888 -0.0360881
v -0.41831 -0.0124257 -0.0345968
v -0.41831 -0.0175612 -0.0322946
v -0.41831 -0.0222852 -0.0292354
v -0.41831 -0.0264868 -0.025491
v -0.41831 -0.0300675 -0.021149
v -0.41831 -0.0329436 -0.0163114
v -0.41831 -0.0350474 -0.0110914
v -0.41831 -0.0363297 -0.00561147
v 0.345775 -0.0395041 0.00581379
v 0.345775 -0.0399296 -4.88996e-18
v 0.345775 -0.0395041 -0.00581379
v 0.345775 -0.0382366 -0.0115037
v 0.345775 -0.0361542 -0.0169484
v 0.345775 -0.0333012 -0.0220319
v 0.345775 -0.0297384 -0.0266458
v 0.345775 -0.0255419 -0.0306918
v 0.345775 -0.0208009 -0.0340836
v 0.345775 -0.0156166 -0.036749
v 0.345775 -0.0100995 -0.0386312
v 0.345775 -0.00436715 -0.03969
v 0.345775 0.00145831 -0.0399029
v 0.345775 0.00725268 -0.0392654
v 0.345775 0.0128925 -0.0377909
v 0.345775 0.0182575 -0.0355111
v 0.345775 0.0232334 -0.0324743
v 0.345775 0.0277141 -0.0287454
v 0.345775 0.0316041 -0.0244039
v 0.345775 0.0348206 -0.0195422
v 0.345775 0.0372949 -0.0142641
v 0.345775 0.0389743 -0.0086819
v 0.345775 0.0398231 -0.00291467
v 0.345775 0.0398231 0.00291467
v 0.345775 0.0389743 0.0086819
v 0.345775 0.0372949 0.0142641
v 0.345775 0.0348206 0.0195422
v 0.345775 0.0316041 0.0244039
v 0.345775 0.0277141 0.0287454
v 0.345775 0.0232334 0.0324743
v 0.345775 0.0182575 0.0355111
v 0.345775 0.0128925 0.0377909
v 0.345775 0.00725268 0.0392654
v 0.345775 0.00145831 0.0399029
v 0.345775 -0.00436715 0.03969
v 0.345775 -0.0100995 0.0386312
v 0.345775 -0.0156166 0.036749
v 0.345775 -0.0208009 0.0340836
v 0.345775 -0.0255419 0.0306918
v 0.345775 -0.0297384 0.0266458
v 0.345775 -0.0333012 0.0220319
v 0.345775 -0.0361542 0.0169484
v 0.345775 -0.0382366 0.0115037
v -0.640141 -0.0395041 -0.00581379
v -0.516901 -0.0395041 -0.00581379
v -0.640141 -0.0399296 -4.62652e-32
v -0.516901 -0.0399296 -4.88996e-18
v -0.640141 -0.0395041 0.00581379
v -0.516901 -0.0395041 0.00581379
v -0.640141 -0.0382366 0.0115037
v -0.516901 -0.0382366 0.0115037
v -0.640141 -0.0361542 0.0169484
v -0.516901 -0.0361542 0.0169484
v -0.640141 -0.0333012 0.0220319
v -0.516901 -0.0333012 0.0220319
v -0.640141 -0.0297384 0.0266458
v -0.516901 -0.0297384 0.0266458
v -0.640141 -0.0255419 0.0306918
v -0.516901 -0.0255419 0.0306918
v -0.640141 -0.0208009 0.0340836
v -0.516901 -0.0208009 0.0340836
v -0.640141 -0.0156166 0.036749
v -0.516901 -0.0156166 0.036749
v -0.640141 -0.0100995 0.0386312
v -0.516901 -0.0100995 0.0386312
v -0.640141 -0.00436715 0.03969
v -0.516901 -0.00436715 0.03969
v -0.640141 0.00145831 0.0399029
v -0.516901 0.00145831 0.0399029
v -0.640141 0.00725268 0.0392654
v -0.516901 0.00725268 0.0392654
v -0.640141 0.0128925 0.0377909
v -0.516901 0.0128925 0.0377909
v -0.640141 0.0182575 0.0355111
v -0.516901 0.0182575 0.0355111
v -0.640141 0.0232334 0.0324743
v -0.516901 0.0232334 0.0324743
v -0.640141 0.0277141 0.0287454
v -0.516901 0.0277141 0.0287454
v -0.640141 0.0316041 0.0244039
v -0.516901 0.0316041 0.0244039
v -0.640141 0.0348206 0.0195422
v -0.516901 0.0348206 0.0195422
v -0.640141 0.0372949 0.0142641
v -0.516901 0.0372949 0.0142641
v -0.640141 0.0389743 0.0086819
v -0.516901 0.0389743 0.0086819
v -0.640141 0.0398231 0.00291467
v -0.516901 0.0398231 0.00291467
v -0.640141 0.0398231 -0.00291467
v -0.516901 0.0398231 -0.00291467
v -0.640141 0.0389743 -0.0086819
v -0.516901 0.0389743 -0.0086819
v -0.640141 0.0372949 -0.0142641
v -0.516901 0.0372949 -0.0142641
v -0.640141 0.0348206 -0.0195422
v -0.516901 0.0348206 -0.0195422
v -0.640141 0.0316041 -0.0244039
v -0.516901 0.0316041 -0.0244039
v -0.640141 0.0277141 -0.0287454
v -0.516901 0.0277141 -0.0287454
v -0.640141 0.0232334 -0.0324743
v -0.516901 0.0232334 -0.0324743
v -0.640141 0.0182575 -0.0355111
v -0.516901 0.0182575 -0.0355111
v -0.640141 0.0128925 -0.0377909
v -0.516901 0.0128925 -0.0377909
v -0.640141 0.00725268 -0.0392654
v -0.516901 0.00725268 -0.0392654
v -0.640141 0.00145831 -0.0399029
v -0.516901 0.00145831 -0.0399029
v -0.640141 -0.00436715 -0.03969
v -0.516901 -0.00436715 -0.03969
v -0.640141 -0.0100995 -0.0386312
v -0.516901 -0.0100995 -0.0386312
v -0.640141 -0.0156166 -0.036749
v -0.516901 -0.0156166 -0.036749
v -0.640141 -0.0208009 -0.0340836
v -0.516901 -0.0208009 -0.0340836
v -0.640141 -0.0255419 -0.0306918
v -0.516901 -0.0255419 -0.0306918
v -0.640141 -0.0297384 -0.0266458
v -0.516901 -0.0297384 -0.0266458
v -0.640141 -0.0333012 -0.0220319
v -0.516901 -0.0333012 -0.0220319
v -0.640141 -0.0361542 -0.0169484
v -0.516901 -0.0361542 -0.0169484
v -0.640141 -0.0382366 -0.0115037
v -0.516901 -0.0382366 -0.0115037
v 0.222535 -0.0399296 -4.88996e-18
v 0.222535 -0.0395041 -0.00581379
v 0.222535 -0.0382366 -0.0115037
v 0.222535 -0.0361542 -0.0169484
v 0.222535 -0.0333012 -0.0220319
v 0.222535 -0.0297384 -0.0266458
v 0.222535 -0.0255419 -0.0306918
v 0.222535 -0.0208009 -0.0340836
v 0.222535 -0.0156166 -0.036749
v 0.222535 -0.0100995 -0.0386312
v 0.222535 -0.00436715 -0.03969
v 0.222535 0.00145831 -0.0399029
v 0.222535 0.00725268 -0.0392654
v 0.222535 0.0128925 -0.0377909
v 0.222535 0.0182575 -0.0355111
v 0.222535 0.0232334 -0.0324743
v 0.222535 0.0277141 -0.0287454
v 0.222535 0.0316041 -0.0244039
v 0.222535 0.0348206 -0.0195422
v 0.222535 0.0372949 -0.0142641
v 0.222535 0.0389743 -0.0086819
v 0.222535 0.0398231 -0.00291467
v 0.222535 0.0398231 0.00291467
v 0.222535 0.0389743 0.0086819
v 0.222535 0.0372949 0.0142641
v 0.222535 0.0348206 0.0195422
v 0.222535 0.0316041 0.0244039
v 0.222535 0.0277141 0.0287454
v 0.222535 0.0232334 0.0324743
v 0.222535 0.0182575 0.0355111
v 0.222535 0.0128925 0.0377909
v 0.222535 0.00725268 0.0392654
v 0.222535 0.00145831 0.0399029
v 0.222535 -0.00436715 0.03969
v 0.222535 -0.0100995 0.0386312
v 0.222535 -0.0156166 0.036749
v 0.222535 -0.0208009 0.0340836
v 0.222535 -0.0255419 0.0306918
v 0.222535 -0.0297384 0.0266458
v 0.222535 -0.0333012 0.0220319
v 0.222535 -0.0361542 0.0169484
v 0.222535 -0.0382366 0.0115037
v 0.222535 -0.0395041 0.00581379
v 0.0992958 -0.0399296 -4.88996e-18
v 0.0992958 -0.0395041 -0.00581379
v 0.0992958 -0.0382366 -0.0115037
v 0.0992958 -0.0361542 -0.0169484
v 0.0992958 -0.0333012 -0.0220319
v 0.0992958 -0.0297384 -0.0266458
v 0.0992958 -0.0255419 -0.0306918
v 0.0992958 -0.0208009 -0.0340836
v 0.0992958 -0.0156166 -0.036749
v 0.0992958 -0.0100995 -0.0386312
v 0.0992958 -0.00436715 -0.03969
v 0.0992958 0.00145831 -0.0399029
v 0.0992958 0.00725268 -0.0392654
v 0.0992958 0.0128925 -0.0377909
v 0.0992958 0.0182575 -0.0355111
v 0.0992958 0.0232334 -0.0324743
v 0.0992958 0.0277141 -0.0287454
v 0.0992958 0.0316041 -0.0244039
v 0.0992958 0.0348206 -0.0195422
v 0.0992958 0.0372949 -0.0142641
v 0.0992958 0.0389743 -0.0086819
v 0.0992958 0.0398231 -0.00291467
v 0.0992958 0.0398231 0.00291467
v 0.0992958 0.0389743 0.0086819
v 0.0992958 0.0372949 0.0142641
v 0.0992958 0.0348206 0.0195422
v 0.0992958 0.0316041 0.0244039
v 0.0992958 0.0277141 0.0287454
v 0.0992958 0.0232334 0.0324743
v 0.0992958 0.0182575 0.0355111
v 0.0992958 0.0128925 0.0377909
v 0.0992958 0.00725268 0.0392654
v 0.0992958 0.00145831 0.0399029
v 0.0992958 -0.00436715 0.03969
v 0.0992958 -0.0100995 0.0386312
v 0.0992958 -0.0156166 0.036749
v 0.0992958 -0.0208009 0.0340836
v 0.0992958 -0.0255419 0.0306918
v 0.0992958 -0.0297384 0.0266458
v 0.0992958 -0.0333012 0.0220319
v 0.0992958 -0.0361542 0.0169484
v 0.0992958 -0.0382366 0.0115037
v 0.0992958 -0.0395041 0.00581379
v -0.0239437 -0.0399296 -4.88996e-18
v -0.0239437 -0.0395041 -0.00581379
v -0.0239437 -0.0382366 -0.0115037
v -0.0239437 -0.0361542 -0.0169484
v -0.0239437 -0.0333012 -0.0220319
v -0.0239437 -0.0297384 -0.0266458
v -0.0239437 -0.0255419 -0.0306918
v -0.0239437 -0.0208009 -0.0340836
v -0.0239437 -0.0156166 -0.036749
v -0.0239437 -0.0100995 -0.0386312
v -0.0239437 -0.00436715 -0.03969
v -0.0239437 0.00145831 -0.0399029
v -0.0239437 0.00725268 -0.0392654
v -0.0239437 0.0128925 -0.0377909
v -0.0239437 0.0182575 -0.0355111
v -0.0239437 0.0232334 -0.0324743
v -0.0239437 0.0277141 -0.0287454
v -0.0239437 0.0316041 -0.0244039
v -0.0239437 0.0348206 -0.0195422
v -0.0239437 0.0372949 -0.0142641
v -0.0239437 0.0389743 -0.0086819
v -0.0239437 0.0398231 -0.00291467
v -0.0239437 0.0398231 0.00291467
v -0.0239437 0.0389743 0.0086819
v -0.0239437 0.0372949 0.0142641
v -0.0239437 0.0348206 0.0195422
v -0.0239437 0.0316041 0.0244039
v -0.0239437 0.0277141 0.0287454
v -0.0239437 0.0232334 0.0324743
v -0.0239437 0.0182575 0.0355111
v -0.0239437 0.0128925 0.0377909
v -0.0239437 0.00725268 0.0392654
v -0.0239437 0.00145831 0.0399029
v -0.0239437 -0.00436715 0.03969
v -0.0239437 -0.0100995 0.0386312
v -0.0239437 -0.0156166 0.036749
v -0.0239437 -0.0208009 0.0340836
v -0.0239437 -0.0255419 0.0306918
v -0.0239437 -0.0297384 0.0266458
v -0.0239437 -0.0333012 0.0220319
v -0.0239437 -0.0361542 0.0169484
v -0.0239437 -0.0382366 0.0115037
v -0.0239437 -0.0395041 0.00581379
v -0.147183 -0.0399296 -4.88996e-18
v -0.147183 -0.0395041 -0.00581379
v -0.147183 -0.0382366 -0.0115037
v -0.147183 -0.0361542 -0.0169484
v -0.147183 -0.0333012 -0.0220319
v -0.147183 -0.0297384 -0.0266458
v -0.147183 -0.0255419 -0.0306918
v -0.147183 -0.0208009 -0.0340836
v -0.147183 -0.0156166 -0.036749
v -0.147183 -0.0100995 -0.0386312
v -0.147183 -0.00436715 -0.03969
v -0.147183 0.00145831 -0.0399029
v -0.147183 0.00725268 -0.0392654
v -0.147183 0.0128925 -0.0377909
v -0.147183 0.0182575 -0.0355111
v -0.147183 0.0232334 -0.0324743
v -0.147183 0.0277141 -0.0287454
v -0.147183 0.0316041 -0.0244039
v -0.147183 0.0348206 -0.0195422
v -0.147183 0.0372949 -0.0142641
v -0.147183 0.0389743 -0.0086819
v -0.147183 0.0398231 -0.00291467
v -0.147183 0.0398231 0.00291467
v -0.147183 0.0389743 0.0086819
v -0.147183 0.0372949 0.0142641
v -0.147183 0.0348206 0.0195422
v -0.147183 0.0316041 0.0244039
v -0.147183 0.0277141 0.0287454
v -0.147183 0.0232334 0.0324743
v -0.147183 0.0182575 0.0355111
v -0.147183 0.0128925 0.0377909
v -0.147183 0.00725268 0.0392654
v -0.147183 0.00145831 0.0399029
v -0.147183 -0.00436715 0.03969
v -0.147183 -0.0100995 0.0386312
v -0.147183 -0.0156166 0.036749
v -0.147183 -0.0208009 0.0340836
v -0.147183 -0.0255419 0.0306918
v -0.147183 -0.0297384 0.0266458
v -0.147183 -0.0333012 0.0220319
v -0.147183 -0.0361542 0.0169484
v -0.147183 -0.0382366 0.0115037
v -0.147183 -0.0395041 0.00581379
v -0.270423 -0.0399296 -4.88996e-18
v -0.270423 -0.0395041 -0.00581379
v -0.270423 -0.0382366 -0.0115037
v -0.270423 -0.0361542 -0.0169484
v -0.270423 -0.0333012 -0.0220319
v -0.270423 -0.0297384 -0.0266458
v -0.270423 -0.0255419 -0.0306918
v -0.270423 -0.0208009 -0.0340836
v -0.270423 -0.0156166 -0.036749
v -0.270423 -0.0100995 -0.0386312
v -0.270423 -0.00436715 -0.03969
v -0.270423 0.00145831 -0.0399029
v -0.270423 0.00725268 -0.0392654
v -0.270423 0.0128925 -0.0377909
v -0.270423 0.0182575 -0.0355111
v -0.270423 0.0232334 -0.0324743
v -0.270423 0.0277141 -0.0287454
v -0.270423 0.0316041 -0.0244039
v -0.270423 0.0348206 -0.0195422
v -0.270423 0.0372949 -0.0142641
v -0.270423 0.0389743 -0.0086819
v -0.270423 0.0398231 -0.00291467
v -0.270423 0.0398231 0.00291467
v -0.270423 0.0389743 0.0086819
v -0.270423 0.0372949 0.0142641
v -0.270423 0.0348206 0.0195422
v -0.270423 0.0316041 0.0244039
v -0.270423 0.0277141 0.0287454
v -0.270423 0.0232334 0.0324743
v -0.270423 0.0182575 0.0355111
v -0.270423 0.0128925 0.0377909
v -0.270423 0.00725268 0.0392654
v -0.270423 0.00145831 0.0399029
v -0.270423 -0.00436715 0.03969
v -0.270423 -0.0100995 0.0386312
v -0.270423 -0.0156166 0.036749
v -0.270423 -0.0208009 0.0340836
v -0.270423 -0.0255419 0.0306918
v -0.270423 -0.0297384 0.0266458
v -0.270423 -0.0333012 0.0220319
v -0.270423 -0.0361542 0.0169484
v -0.270423 -0.0382366 0.0115037
v -0.270423 -0.0395041 0.00581379
v -0.393662 -0.0399296 -4.88996e-18
v -0.393662 -0.0395041 -0.00581379
v -0.393662 -0.0382366 -0.0115037
v -0.393662 -0.0361542 -0.0169484
v -0.393662 -0.0333012 -0.0220319
v -0.393662 -0.0297384 -0.0266458
v -0.393662 -0.0255419 -0.0306918
v -0.393662 -0.0208009 -0.0340836
v -0.393662 -0.0156166 -0.036749
v -0.393662 -0.0100995 -0.0386312
v -0.393662 -0.00436715 -0.03969
v -0.393662 0.00145831 -0.0399029
v -0.393662 0.00725268 -0.0392654
v -0.393662 0.0128925 -0.0377909
v -0.393662 0.0182575 -0.0355111
v -0.393662 0.0232334 -0.0324743
v -0.393662 0.0277141 -0.0287454
v -0.393662 0.0316041 -0.0244039
v -0.393662 0.0348206 -0.0195422
v -0.393662 0.0372949 -0.0142641
v -0.393662 0.0389743 -0.0086819
v -0.393662 0.0398231 -0.00291467
v -0.393662 0.0398231 0.00291467
v -0.393662 0.0389743 0.0086819
v -0.393662 0.0372949 0.0142641
v -0.393662 0.0348206 0.0195422
v -0.393662 0.0316041 0.0244039
v -0.393662 0.0277141 0.0287454
v -0.393662 0.0232334 0.0324743
v -0.393662 0.0182575 0.0355111
v -0.393662 0.0128925 0.0377909
v -0.393662 0.00725268 0.0392654
v -0.393662 0.00145831 0.0399029
v -0.393662 -0.00436715 0.03969
v -0.393662 -0.0100995 0.0386312
v -0.393662 -0.0156166 0.036749
v -0.393662 -0.0208009 0.0340836
v -0.393662 -0.0255419 0.0306918
v -0.393662 -0.0297384 0.0266458
v -0.393662 -0.0333012 0.0220319
v -0.393662 -0.0361542 0.0169484
v -0.393662 -0.0382366 0.0115037
v -0.393662 -0.0395041 0.00581379
# </points>

# <faces count="1762">
g patch0
f 1 2 3
f 3 2 4
f 3 4 5
f 5 4 6
f 5 6 7
f 7 6 8
f 7 8 9
f 9 8 10
f 9 10 11
f 11 10 12
f 11 12 13
f 13 12 14
f 13 14 15
f 15 14 16
f 15 16 17
f 17 16 18
f 17 18 19
f 19 18 20
f 19 20 21
f 21 20 22
f 21 22 23
f 23 22 24
f 23 24 25
f 25 24 26
f 25 26 27
f 27 26 28
f 27 28 29
f 29 28 30
f 29 30 31
f 31 30 32
f 31 32 33
f 33 32 34
f 33 34 35
f 35 34 36
f 35 36 37
f 37 36 38
f 37 38 39
f 39 38 40
f 39 40 41
f 41 40 42
f 41 42 43
f 43 42 44
f 43 44 45
f 43 45 46
f 46 45 47
f 46 47 48
f 48 47 49
f 48 49 50
f 50 49 51
f 50 51 52
f 52 51 53
f 52 53 54
f 54 53 55
f 54 55 56
f 56 55 57
f 56 57 58
f 58 57 59
f 58 59 60
f 60 59 61
f 60 61 62
f 62 61 63
f 62 63 64
f 64 63 65
f 64 65 66
f 66 65 67
f 66 67 68
f 68 67 69
f 68 69 70
f 70 69 71
f 70 71 72
f 72 71 73
f 72 73 74
f 74 73 75
f 74 75 76
f 76 75 77
f 76 77 78
f 78 77 79
f 78 79 80
f 80 79 81
f 80 81 82
f 82 81 83
f 82 83 84
f 84 83 1
f 84 1 3
f 5 85 3
f 3 85 86
f 3 86 84
f 84 86 87
f 84 87 82
f 82 87 88
f 82 88 80
f 80 88 89
f 80 89 78
f 78 89 90
f 78 90 76
f 76 90 91
f 76 91 74
f 74 91 92
f 74 92 72
f 72 92 93
f 72 93 70
f 70 93 94
f 70 94 68
f 68 94 95
f 68 95 66
f 66 95 96
f 66 96 64
f 64 96 97
f 64 97 62
f 62 97 98
f 62 98 60
f 60 98 99
f 60 99 58
f 58 99 100
f 58 100 56
f 56 100 101
f 56 101 54
f 54 101 102
f 54 102 52
f 52 102 103
f 52 103 50
f 50 103 104
f 50 104 48
f 48 104 105
f 48 105 46
f 46 105 106
f 46 106 43
f 43 106 107
f 43 107 41
f 41 107 108
f 41 108 39
f 39 108 109
f 39 109 37
f 37 109 110
f 37 110 35
f 35 110 111
f 35 111 33
f 33 111 112
f 33 112 31
f 31 112 113
f 31 113 29
f 29 113 114
f 29 114 27
f 27 114 115
f 27 115 25
f 25 115 116
f 25 116 23
f 23 116 117
f 23 117 21
f 21 117 118
f 21 118 19
f 19 118 119
f 19 119 17
f 17 119 120
f 17 120 15
f 15 120 121
f 15 121 13
f 13 121 122
f 13 122 11
f 11 122 123
f 11 123 9
f 9 123 124
f 9 124 7
f 7 124 125
f 7 125 5
f 5 125 85
f 126 127 128
f 128 127 129
f 128 129 130
f 130 129 131
f 130 131 132
f 132 131 133
f 132 133 134
f 134 133 135
f 134 135 136
f 136 135 137
f 136 137 138
f 138 137 139
f 138 139 140
f 140 139 141
f 140 141 142
f 142 141 143
f 142 143 144
f 144 143 145
f 144 145 146
f 146 145 147
f 146 147 148
f 148 147 149
f 148 149 150
f 150 149 151
f 150 151 152
f 152 151 153
f 152 153 154
f 154 153 155
f 154 155 156
f 156 155 157
f 156 157 158
f 158 157 159
f 158 159 160
f 160 159 161
f 160 161 162
f 162 161 163
f 162 163 164
f 164 163 165
f 164 165 166
f 166 165 167
f 166 167 168
f 168 167 169
f 168 169 170
f 170 169 171
f 170 171 172
f 172 171 173
f 172 173 174
f 174 173 175
f 174 175 176
f 176 175 177
f 176 177 178
f 178 177 179
f 178 179 180
f 180 179 181
f 180 181 182
f 182 181 183
f 182 183 184
f 184 183 185
f 184 185 186
f 186 185 187
f 186 187 188
f 188 187 189
f 188 189 190
f 190 189 191
f 190 191 192
f 192 191 193
f 192 193 194
f 194 193 195
f 194 195 196
f 196 195 197
f 196 197 198
f 198 197 199
f 198 199 200
f 200 199 201
f 200 201 202
f 202 201 203
f 202 203 204
f 204 203 205
f 204 205 206
f 206 205 207
f 206 207 126
f 126 207 127
f 86 208 87
f 87 208 209
f 87 209 88
f 88 209 210
f 88 210 89
f 89 210 211
f 89 211 90
f 90 211 212
f 90 212 91
f 91 212 213
f 91 213 92
f 92 213 214
f 92 214 93
f 93 214 215
f 93 215 94
f 94 215 216
f 94 216 95
f 95 216 217
f 95 217 96
f 96 217 218
f 96 218 97
f 97 218 219
f 97 219 98
f 98 219 220
f 98 220 99
f 99 220 221
f 99 221 100
f 100 221 222
f 100 222 101
f 101 222 223
f 101 223 102
f 102 223 224
f 102 224 103
f 103 224 225
f 103 225 104
f 104 225 226
f 104 226 105
f 105 226 227
f 105 227 106
f 106 227 228
f 106 228 107
f 107 228 229
f 107 229 108
f 108 229 230
f 108 230 109
f 109 230 231
f 109 231 110
f 110 231 232
f 110 232 111
f 111 232 233
f 111 233 112
f 112 233 234
f 112 234 113
f 113 234 235
f 113 235 114
f 114 235 236
f 114 236 115
f 115 236 237
f 115 237 116
f 116 237 238
f 116 238 117
f 117 238 239
f 117 239 118
f 118 239 240
f 118 240 119
f 119 240 241
f 119 241 120
f 120 241 242
f 120 242 121
f 121 242 243
f 121 243 122
f 122 243 244
f 122 244 123
f 123 244 245
f 123 245 124
f 124 245 246
f 124 246 125
f 125 246 247
f 125 247 85
f 85 247 248
f 85 248 86
f 86 248 208
f 208 249 209
f 209 249 250
f 209 250 210
f 210 250 251
f 210 251 211
f 211 251 252
f 211 252 212
f 212 252 253
f 212 253 213
f 213 253 254
f 213 254 214
f 214 254 255
f 214 255 215
f 215 255 256
f 215 256 216
f 216 256 257
f 216 257 217
f 217 257 258
f 217 258 218
f 218 258 259
f 218 259 219
f 219 259 260
f 219 260 220
f 220 260 261
f 220 261 221
f 221 261 262
f 221 262 222
f 222 262 263
f 222 263 223
f 223 263 264
f 223 264 224
f 224 264 265
f 224 265 225
f 225 265 266
f 225 266 226
f 226 266 267
f 226 267 227
f 227 267 268
f 227 268 228
f 228 268 269
f 228 269 229
f 229 269 270
f 229 270 230
f 230 270 271
f 230 271 231
f 231 271 272
f 231 272 232
f 232 272 273
f 232 273 233
f 233 273 274
f 233 274 234
f 234 274 275
f 234 275 235
f 235 275 276
f 235 276 236
f 236 276 277
f 236 277 237
f 237 277 278
f 237 278 238
f 238 278 279
f 238 279 239
f 239 279 280
f 239 280 240
f 240 280 281
f 240 281 241
f 241 281 282
f 241 282 242
f 242 282 283
f 242 283 243
f 243 283 284
f 243 284 244
f 244 284 285
f 244 285 245
f 245 285 286
f 245 286 246
f 246 286 287
f 246 287 247
f 247 287 288
f 247 288 248
f 248 288 289
f 248 289 208
f 208 289 249
f 249 290 250
f 250 290 291
f 250 291 251
f 251 291 292
f 251 292 252
f 252 292 293
f 252 293 253
f 253 293 294
f 253 294 254
f 254 294 295
f 254 295 255
f 255 295 296
f 255 296 256
f 256 296 297
f 256 297 257
f 257 297 298
f 257 298 258
f 258 298 299
f 258 299 259
f 259 299 300
f 259 300 260
f 260 300 301
f 260 301 261
f 261 301 302
f 261 302 262
f 262 302 303
f 262 303 263
f 263 303 304
f 263 304 264
f 264 304 305
f 264 305 265
f 265 305 306
f 265 306 266
f 266 306 307
f 266 307 267
f 267 307 308
f 267 308 268
f 268 308 309
f 268 309 269
f 269 309 310
f 269 310 270
f 270 310 311
f 270 311 271
f 271 311 312
f 271 312 272
f 272 312 313
f 272 313 273
f 273 313 314
f 273 314 274
f 274 314 315
f 274 315 275
f 275 315 316
f 275 316 276
f 276 316 317
f 276 317 277
f 277 317 318
f 277 318 278
f 278 318 319
f 278 319 279
f 279 319 320
f 279 320 280
f 280 320 321
f 280 321 281
f 281 321 322
f 281 322 282
f 282 322 323
f 282 323 283
f 283 323 324
f 283 324 284
f 284 324 325
f 284 325 285
f 285 325 326
f 285 326 286
f 286 326 327
f 286 327 287
f 287 327 328
f 287 328 288
f 288 328 329
f 288 329 289
f 289 329 330
f 289 330 249
f 249 330 290
f 290 331 291
f 291 331 332
f 291 332 292
f 292 332 333
f 292 333 293
f 293 333 334
f 293 334 294
f 294 334 335
f 294 335 295
f 295 335 336
f 295 336 296
f 296 336 337
f 296 337 297
f 297 337 338
f 297 338 298
f 298 338 339
f 298 339 299
f 299 339 340
f 299 340 300
f 300 340 341
f 300 341 301
f 301 341 342
f 301 342 302
f 302 342 343
f 302 343 303
f 303 343 344
f 303 344 304
f 304 344 345
f 304 345 305
f 305 345 346
f 305 346 306
f 306 346 347
f 306 347 307
f 307 347 348
f 307 348 308
f 308 348 349
f 308 349 309
f 309 349 350
f 309 350 310
f 310 350 351
f 310 351 311
f 311 351 352
f 311 352 312
f 312 352 353
f 312 353 313
f 313 353 354
f 313 354 314
f 314 354 355
f 314 355 315
f 315 355 356
f 315 356 316
f 316 356 357
f 316 357 317
f 317 357 358
f 317 358 318
f 318 358 359
f 318 359 319
f 319 359 360
f 319 360 320
f 320 360 361
f 320 361 321
f 321 361 362
f 321 362 322
f 322 362 363
f 322 363 323
f 323 363 364
f 323 364 324
f 324 364 365
f 324 365 325
f 325 365 366
f 325 366 326
f 326 366 367
f 326 367 327
f 327 367 368
f 327 368 328
f 328 368 369
f 328 369 329
f 329 369 370
f 329 370 330
f 330 370 371
f 330 371 290
f 290 371 331
f 331 372 332
f 332 372 373
f 332 373 333
f 333 373 374
f 333 374 334
f 334 374 375
f 334 375 335
f 335 375 376
f 335 376 336
f 336 376 377
f 336 377 337
f 337 377 378
f 337 378 338
f 338 378 379
f 338 379 339
f 339 379 380
f 339 380 340
f 340 380 381
f 340 381 341
f 341 381 382
f 341 382 342
f 342 382 383
f 342 383 343
f 343 383 384
f 343 384 344
f 344 384 385
f 344 385 345
f 345 385 386
f 345 386 346
f 346 386 387
f 346 387 347
f 347 387 388
f 347 388 348
f 348 388 389
f 348 389 349
f 349 389 390
f 349 390 350
f 350 390 391
f 350 391 351
f 351 391 392
f 351 392 352
f 352 392 393
f 352 393 353
f 353 393 394
f 353 394 354
f 354 394 395
f 354 395 355
f 355 395 396
f 355 396 356
f 356 396 397
f 356 397 357
f 357 397 398
f 357 398 358
f 358 398 399
f 358 399 359
f 359 399 400
f 359 400 360
f 360 400 401
f 360 401 361
f 361 401 402
f 361 402 362
f 362 402 403
f 362 403 363
f 363 403 404
f 363 404 364
f 364 404 405
f 364 405 365
f 365 405 406
f 365 406 366
f 366 406 407
f 366 407 367
f 367 407 408
f 367 408 368
f 368 408 409
f 368 409 369
f 369 409 410
f 369 410 370
f 370 410 411
f 370 411 371
f 371 411 412
f 371 412 331
f 331 412 372
f 372 413 373
f 373 413 414
f 373 414 374
f 374 414 415
f 374 415 375
f 375 415 416
f 375 416 376
f 376 416 417
f 376 417 377
f 377 417 418
f 377 418 378
f 378 418 419
f 378 419 379
f 379 419 420
f 379 420 380
f 380 420 421
f 380 421 381
f 381 421 422
f 381 422 382
f 382 422 423
f 382 423 383
f 383 423 424
f 383 424 384
f 384 424 425
f 384 425 385
f 385 425 426
f 385 426 386
f 386 426 427
f 386 427 387
f 387 427 428
f 387 428 388
f 388 428 429
f 388 429 389
f 389 429 430
f 389 430 390
f 390 430 431
f 390 431 391
f 391 431 432
f 391 432 392
f 392 432 433
f 392 433 393
f 393 433 434
f 393 434 394
f 394 434 435
f 394 435 395
f 395 435 436
f 395 436 396
f 396 436 437
f 396 437 397
f 397 437 438
f 397 438 398
f 398 438 439
f 398 439 399
f 399 439 440
f 399 440 400
f 400 440 441
f 400 441 401
f 401 441 442
f 401 442 402
f 402 442 443
f 402 443 403
f 403 443 444
f 403 444 404
f 404 444 445
f 404 445 405
f 405 445 446
f 405 446 406
f 406 446 447
f 406 447 407
f 407 447 448
f 407 448 408
f 408 448 449
f 408 449 409
f 409 449 450
f 409 450 410
f 410 450 451
f 410 451 411
f 411 451 452
f 411 452 412
f 412 452 453
f 412 453 372
f 372 453 413
f 413 454 414
f 414 454 455
f 414 455 415
f 415 455 456
f 415 456 416
f 416 456 457
f 416 457 417
f 417 457 458
f 417 458 418
f 418 458 459
f 418 459 419
f 419 459 460
f 419 460 420
f 420 460 461
f 420 461 421
f 421 461 462
f 421 462 422
f 422 462 463
f 422 463 423
f 423 463 464
f 423 464 424
f 424 464 465
f 424 465 425
f 425 465 466
f 425 466 426
f 426 466 467
f 426 467 427
f 427 467 468
f 427 468 428
f 428 468 469
f 428 469 429
f 429 469 470
f 429 470 430
f 430 470 471
f 430 471 431
f 431 471 472
f 431 472 432
f 432 472 473
f 432 473 433
f 433 473 474
f 433 474 434
f 434 474 475
f 434 475 435
f 435 475 476
f 435 476 436
f 436 476 477
f 436 477 437
f 437 477 478
f 437 478 438
f 438 478 479
f 438 479 439
f 439 479 480
f 439 480 440
f 440 480 481
f 440 481 441
f 441 481 482
f 441 482 442
f 442 482 483
f 442 483 443
f 443 483 484
f 443 484 444
f 444 484 485
f 444 485 445
f 445 485 486
f 445 486 446
f 446 486 487
f 446 487 447
f 447 487 488
f 447 488 448
f 448 488 489
f 448 489 449
f 449 489 490
f 449 490 450
f 450 490 491
f 450 491 451
f 451 491 492
f 451 492 452
f 452 492 493
f 452 493 453
f 453 493 494
f 453 494 413
f 413 494 454
f 454 129 455
f 455 129 127
f 455 127 456
f 456 127 207
f 456 207 457
f 457 207 205
f 457 205 458
f 458 205 203
f 458 203 459
f 459 203 201
f 459 201 460
f 460 201 199
f 460 199 461
f 461 199 197
f 461 197 462
f 462 197 195
f 462 195 463
f 463 195 193
f 463 193 464
f 464 193 191
f 464 191 465
f 465 191 189
f 465 189 466
f 466 189 187
f 466 187 467
f 467 187 185
f 467 185 468
f 468 185 183
f 468 183 469
f 469 183 181
f 469 181 470
f 470 181 179
f 470 179 471
f 471 179 177
f 471 177 472
f 472 177 175
f 472 175 473
f 473 175 173
f 473 173 474
f 474 173 171
f 474 171 475
f 475 171 169
f 475 169 476
f 476 169 167
f 476 167 477
f 477 167 165
f 477 165 478
f 478 165 163
f 478 163 479
f 479 163 161
f 479 161 480
f 480 161 159
f 480 159 481
f 481 159 157
f 481 157 482
f 482 157 155
f 482 155 483
f 483 155 153
f 483 153 484
f 484 153 151
f 484 151 485
f 485 151 149
f 485 149 486
f 486 149 147
f 486 147 487
f 487 147 145
f 487 145 488
f 488 145 143
f 488 143 489
f 489 143 141
f 489 141 490
f 490 141 139
f 490 139 491
f 491 139 137
f 491 137 492
f 492 137 135
f 492 135 493
f 493 135 133
f 493 133 494
f 494 133 131
f 494 131 454
f 454 131 129
f 1 495 2
f 2 495 496
f 2 496 4
f 4 496 497
f 4 497 6
f 6 497 498
f 6 498 8
f 8 498 499
f 8 499 10
f 10 499 500
f 10 500 12
f 12 500 501
f 12 501 14
f 14 501 502
f 14 502 16
f 16 502 503
f 16 503 18
f 18 503 504
f 18 504 20
f 20 504 505
f 20 505 22
f 22 505 506
f 22 506 24
f 24 506 507
f 24 507 26
f 26 507 508
f 26 508 28
f 28 508 509
f 28 509 30
f 30 509 510
f 30 510 32
f 32 510 511
f 32 511 34
f 34 511 512
f 34 512 36
f 36 512 513
f 36 513 38
f 38 513 514
f 38 514 40
f 40 514 515
f 40 515 42
f 42 515 516
f 42 516 44
f 44 516 517
f 44 517 45
f 45 517 518
f 45 518 47
f 47 518 519
f 47 519 49
f 49 519 520
f 49 520 51
f 51 520 521
f 51 521 53
f 53 521 522
f 53 522 55
f 55 522 523
f 55 523 57
f 57 523 524
f 57 524 59
f 59 524 525
f 59 525 61
f 61 525 526
f 61 526 63
f 63 526 527
f 63 527 65
f 65 527 528
f 65 528 67
f 67 528 529
f 67 529 69
f 69 529 530
f 69 530 71
f 71 530 531
f 71 531 73
f 73 531 532
f 73 532 75
f 75 532 533
f 75 533 77
f 77 533 534
f 77 534 79
f 79 534 535
f 79 535 81
f 81 535 536
f 81 536 83
f 83 536 537
f 83 537 1
f 1 537 495
f 538 539 540
f 540 539 541
f 540 541 542
f 542 541 543
f 542 543 544
f 544 543 545
f 544 545 546
f 546 545 547
f 546 547 548
f 548 547 549
f 548 549 550
f 550 549 551
f 550 551 552
f 552 551 553
f 552 553 554
f 554 553 555
f 554 555 556
f 556 555 557
f 556 557 558
f 558 557 559
f 558 559 560
f 560 559 561
f 560 561 562
f 562 561 563
f 562 563 564
f 564 563 565
f 564 565 566
f 566 565 567
f 566 567 568
f 568 567 569
f 568 569 570
f 570 569 571
f 570 571 572
f 572 571 573
f 572 573 574
f 574 573 575
f 574 575 576
f 576 575 577
f 576 577 578
f 578 577 579
f 578 579 580
f 580 579 581
f 580 581 582
f 582 581 583
f 582 583 584
f 584 583 585
f 584 585 586
f 586 585 587
f 586 587 588
f 588 587 589
f 588 589 590
f 590 589 591
f 590 591 592
f 592 591 593
f 592 593 594
f 594 593 595
f 594 595 596
f 596 595 597
f 596 597 598
f 598 597 599
f 598 599 600
f 600 599 601
f 600 601 602
f 602 601 603
f 602 603 604
f 604 603 605
f 604 605 606
f 606 605 607
f 606 607 608
f 608 607 609
f 608 609 610
f 610 609 611
f 610 611 612
f 612 611 613
f 612 613 614
f 614 613 615
f 614 615 616
f 616 615 617
f 616 617 618
f 618 617 619
f 618 619 620
f 620 619 621
f 620 621 622
f 622 621 623
f 622 623 538
f 538 623 539
f 496 624 497
f 497 624 625
f 497 625 498
f 498 625 626
f 498 626 499
f 499 626 627
f 499 627 500
f 500 627 628
f 500 628 501
f 501 628 629
f 501 629 502
f 502 629 630
f 502 630 503
f 503 630 631
f 503 631 504
f 504 631 632
f 504 632 505
f 505 632 633
f 505 633 506
f 506 633 634
f 506 634 507
f 507 634 635
f 507 635 508
f 508 635 636
f 508 636 509
f 509 636 637
f 509 637 510
f 510 637 638
f 510 638 511
f 511 638 639
f 511 639 512
f 512 639 640
f 512 640 513
f 513 640 641
f 513 641 514
f 514 641 642
f 514 642 515
f 515 642 643
f 515 643 516
f 516 643 644
f 516 644 517
f 517 644 645
f 517 645 518
f 518 645 646
f 518 646 519
f 519 646 647
f 519 647 520
f 520 647 648
f 520 648 521
f 521 648 649
f 521 649 522
f 522 649 650
f 522 650 523
f 523 650 651
f 523 651 524
f 524 651 652
f 524 652 525
f 525 652 653
f 525 653 526
f 526 653 654
f 526 654 527
f 527 654 655
f 527 655 528
f 528 655 656
f 528 656 529
f 529 656 657
f 529 657 530
f 530 657 658
f 530 658 531
f 531 658 659
f 531 659 532
f 532 659 660
f 532 660 533
f 533 660 661
f 533 661 534
f 534 661 662
f 534 662 535
f 535 662 663
f 535 663 536
f 536 663 664
f 536 664 537
f 537 664 665
f 537 665 495
f 495 665 666
f 495 666 496
f 496 666 624
f 624 667 625
f 625 667 668
f 625 668 626
f 626 668 669
f 626 669 627
f 627 669 670
f 627 670 628
f 628 670 671
f 628 671 629
f 629 671 672
f 629 672 630
f 630 672 673
f 630 673 631
f 631 673 674
f 631 674 632
f 632 674 675
f 632 675 633
f 633 675 676
f 633 676 634
f 634 676 677
f 634 677 635
f 635 677 678
f 635 678 636
f 636 678 679
f 636 679 637
f 637 679 680
f 637 680 638
f 638 680 681
f 638 681 639
f 639 681 682
f 639 682 640
f 640 682 683
f 640 683 641
f 641 683 684
f 641 684 642
f 642 684 685
f 642 685 643
f 643 685 686
f 643 686 644
f 644 686 687
f 644 687 645
f 645 687 688
f 645 688 646
f 646 688 689
f 646 689 647
f 647 689 690
f 647 690 648
f 648 690 691
f 648 691 649
f 649 691 692
f 649 692 650
f 650 692 693
f 650 693 651
f 651 693 694
f 651 694 652
f 652 694 695
f 652 695 653
f 653 695 696
f 653 696 654
f 654 696 697
f 654 697 655
f 655 697 698
f 655 698 656
f 656 698 699
f 656 699 657
f 657 699 700
f 657 700 658
f 658 700 701
f 658 701 659
f 659 701 702
f 659 702 660
f 660 702 703
f 660 703 661
f 661 703 704
f 661 704 662
f 662 704 705
f 662 705 663
f 663 705 706
f 663 706 664
f 664 706 707
f 664 707 665
f 665 707 708
f 665 708 666
f 666 708 709
f 666 709 624
f 624 709 667
f 667 710 668
f 668 710 711
f 668 711 669
f 669 711 712
f 669 712 670
f 670 712 713
f 670 713 671
f 671 713 714
f 671 714 672
f 672 714 715
f 672 715 673
f 673 715 716
f 673 716 674
f 674 716 717
f 674 717 675
f 675 717 718
f 675 718 676
f 676 718 719
f 676 719 677
f 677 719 720
f 677 720 678
f 678 720 721
f 678 721 679
f 679 721 722
f 679 722 680
f 680 722 723
f 680 723 681
f 681 723 724
f 681 724 682
f 682 724 725
f 682 725 683
f 683 725 726
f 683 726 684
f 684 726 727
f 684 727 685
f 685 727 728
f 685 728 686
f 686 728 729
f 686 729 687
f 687 729 730
f 687 730 688
f 688 730 731
f 688 731 689
f 689 731 732
f 689 732 690
f 690 732 733
f 690 733 691
f 691 733 734
f 691 734 692
f 692 734 735
f 692 735 693
f 693 735 736
f 693 736 694
f 694 736 737
f 694 737 695
f 695 737 738
f 695 738 696
f 696 738 739
f 696 739 697
f 697 739 740
f 697 740 698
f 698 740 741
f 698 741 699
f 699 741 742
f 699 742 700
f 700 742 743
f 700 743 701
f 701 743 744
f 701 744 702
f 702 744 745
f 702 745 703
f 703 745 746
f 703 746 704
f 704 746 747
f 704 747 705
f 705 747 748
f 705 748 706
f 706 748 749
f 706 749 707
f 707 749 750
f 707 750 708
f 708 750 751
f 708 751 709
f 709 751 752
f 709 752 667
f 667 752 710
f 710 753 711
f 711 753 754
f 711 754 712
f 712 754 755
f 712 755 713
f 713 755 756
f 713 756 714
f 714 756 757
f 714 757 715
f 715 757 758
f 715 758 716
f 716 758 759
f 716 759 717
f 717 759 760
f 717 760 718
f 718 760 761
f 718 761 719
f 719 761 762
f 719 762 720
f 720 762 763
f 720 763 721
f 721 763 764
f 721 764 722
f 722 764 765
f 722 765 723
f 723 765 766
f 723 766 724
f 724 766 767
f 724 767 725
f 725 767 768
f 725 768 726
f 726 768 769
f 726 769 727
f 727 769 770
f 727 770 728
f 728 770 771
f 728 771 729
f 729 771 772
f 729 772 730
f 730 772 773
f 730 773 731
f 731 773 774
f 731 774 732
f 732 774 775
f 732 775 733
f 733 775 776
f 733 776 734
f 734 776 777
f 734 777 735
f 735 777 778
f 735 778 736
f 736 778 779
f 736 779 737
f 737 779 780
f 737 780 738
f 738 780 781
f 738 781 739
f 739 781 782
f 739 782 740
f 740 782 783
f 740 783 741
f 741 783 784
f 741 784 742
f 742 784 785
f 742 785 743
f 743 785 786
f 743 786 744
f 744 786 787
f 744 787 745
f 745 787 788
f 745 788 746
f 746 788 789
f 746 789 747
f 747 789 790
f 747 790 748
f 748 790 791
f 748 791 749
f 749 791 792
f 749 792 750
f 750 792 793
f 750 793 751
f 751 793 794
f 751 794 752
f 752 794 795
f 752 795 710
f 710 795 753
f 753 796 754
f 754 796 797
f 754 797 755
f 755 797 798
f 755 798 756
f 756 798 799
f 756 799 757
f 757 799 800
f 757 800 758
f 758 800 801
f 758 801 759
f 759 801 802
f 759 802 760
f 760 802 803
f 760 803 761
f 761 803 804
f 761 804 762
f 762 804 805
f 762 805 763
f 763 805 806
f 763 806 764
f 764 806 807
f 764 807 765
f 765 807 808
f 765 808 766
f 766 808 809
f 766 809 767
f 767 809 810
f 767 810 768
f 768 810 811
f 768 811 769
f 769 811 812
f 769 812 770
f 770 812 813
f 770 813 771
f 771 813 814
f 771 814 772
f 772 814 815
f 772 815 773
f 773 815 816
f 773 816 774
f 774 816 817
f 774 817 775
f 775 817 818
f 775 818 776
f 776 818 819
f 776 819 777
f 777 819 820
f 777 820 778
f 778 820 821
f 778 821 779
f 779 821 822
f 779 822 780
f 780 822 823
f 780 823 781
f 781 823 824
f 781 824 782
f 782 824 825
f 782 825 783
f 783 825 826
f 783 826 784
f 784 826 827
f 784 827 785
f 785 827 828
f 785 828 786
f 786 828 829
f 786 829 787
f 787 829 830
f 787 830 788
f 788 830 831
f 788 831 789
f 789 831 832
f 789 832 790
f 790 832 833
f 790 833 791
f 791 833 834
f 791 834 792
f 792 834 835
f 792 835 793
f 793 835 836
f 793 836 794
f 794 836 837
f 794 837 795
f 795 837 838
f 795 838 753
f 753 838 796
f 796 839 797
f 797 839 840
f 797 840 798
f 798 840 841
f 798 841 799
f 799 841 842
f 799 842 800
f 800 842 843
f 800 843 801
f 801 843 844
f 801 844 802
f 802 844 845
f 802 845 803
f 803 845 846
f 803 846 804
f 804 846 847
f 804 847 805
f 805 847 848
f 805 848 806
f 806 848 849
f 806 849 807
f 807 849 850
f 807 850 808
f 808 850 851
f 808 851 809
f 809 851 852
f 809 852 810
f 810 852 853
f 810 853 811
f 811 853 854
f 811 854 812
f 812 854 855
f 812 855 813
f 813 855 856
f 813 856 814
f 814 856 857
f 814 857 815
f 815 857 858
f 815 858 816
f 816 858 859
f 816 859 817
f 817 859 860
f 817 860 818
f 818 860 861
f 818 861 819
f 819 861 862
f 819 862 820
f 820 862 863
f 820 863 821
f 821 863 864
f 821 864 822
f 822 864 865
f 822 865 823
f 823 865 866
f 823 866 824
f 824 866 867
f 824 867 825
f 825 867 868
f 825 868 826
f 826 868 869
f 826 869 827
f 827 869 870
f 827 870 828
f 828 870 871
f 828 871 829
f 829 871 872
f 829 872 830
f 830 872 873
f 830 873 831
f 831 873 874
f 831 874 832
f 832 874 875
f 832 875 833
f 833 875 876
f 833 876 834
f 834 876 877
f 834 877 835
f 835 877 878
f 835 878 836
f 836 878 879
f 836 879 837
f 837 879 880
f 837 880 838
f 838 880 881
f 838 881 796
f 796 881 839
f 839 541 840
f 840 541 539
f 840 539 841
f 841 539 623
f 841 623 842
f 842 623 621
f 842 621 843
f 843 621 619
f 843 619 844
f 844 619 617
f 844 617 845
f 845 617 615
f 845 615 846
f 846 615 613
f 846 613 847
f 847 613 611
f 847 611 848
f 848 611 609
f 848 609 849
f 849 609 607
f 849 607 850
f 850 607 605
f 850 605 851
f 851 605 603
f 851 603 852
f 852 603 601
f 852 601 853
f 853 601 599
f 853 599 854
f 854 599 597
f 854 597 855
f 855 597 595
f 855 595 856
f 856 595 593
f 856 593 857
f 857 593 591
f 857 591 858
f 858 591 589
f 858 589 859
f 859 589 587
f 859 587 860
f 860 587 585
f 860 585 861
f 861 585 583
f 861 583 862
f 862 583 581
f 862 581 863
f 863 581 579
f 863 579 864
f 864 579 577
f 864 577 865
f 865 577 575
f 865 575 866
f 866 575 573
f 866 573 867
f 867 573 571
f 867 571 868
f 868 571 569
f 868 569 869
f 869 569 567
f 869 567 870
f 870 567 565
f 870 565 871
f 871 565 563
f 871 563 872
f 872 563 561
f 872 561 873
f 873 561 559
f 873 559 874
f 874 559 557
f 874 557 875
f 875 557 555
f 875 555 876
f 876 555 553
f 876 553 877
f 877 553 551
f 877 551 878
f 878 551 549
f 878 549 879
f 879 549 547
f 879 547 880
f 880 547 545
f 880 545 881
f 881 545 543
f 881 543 839
f 839 543 541
f 538 540 128
f 128 540 542
f 128 542 126
f 126 542 544
f 126 544 206
f 206 544 546
f 206 546 204
f 204 546 548
f 204 548 202
f 202 548 550
f 202 550 200
f 200 550 552
f 200 552 198
f 198 552 554
f 198 554 196
f 196 554 556
f 196 556 194
f 194 556 558
f 194 558 192
f 192 558 560
f 192 560 190
f 190 560 562
f 190 562 188
f 188 562 564
f 188 564 186
f 186 564 566
f 186 566 184
f 184 566 568
f 184 568 182
f 182 568 570
f 182 570 180
f 180 570 572
f 180 572 178
f 178 572 574
f 178 574 176
f 176 574 576
f 176 576 174
f 174 576 578
f 174 578 172
f 172 578 580
f 172 580 170
f 170 580 582
f 170 582 584
f 170 584 168
f 168 584 586
f 168 586 166
f 166 586 588
f 166 588 164
f 164 588 590
f 164 590 162
f 162 590 592
f 162 592 160
f 160 592 594
f 160 594 158
f 158 594 596
f 158 596 156
f 156 596 598
f 156 598 154
f 154 598 600
f 154 600 152
f 152 600 602
f 152 602 150
f 150 602 604
f 150 604 148
f 148 604 606
f 148 606 146
f 146 606 608
f 146 608 144
f 144 608 610
f 144 610 142
f 142 610 612
f 142 612 140
f 140 612 614
f 140 614 138
f 138 614 616
f 138 616 136
f 136 616 618
f 136 618 134
f 134 618 620
f 134 620 132
f 132 620 622
f 132 622 130
f 130 622 538
f 130 538 128
# </faces>
