# Wavefront OBJ file written 2026-08-03T01:34:51
o ensamble_todo_v2_cfd_normal_5

# points : 532
# faces  : 1064
# zones  : 1
#   0  patch0  (nFaces: 1064)

# <points count="532">
v 0.125481 -0.0430162 -0.000512626
v 0.124333 -0.0430162 -0.000820201
v 0.124225 -0.0430162 -9.71054e-17
v 0.124333 -0.0398472 -0.000820201
v 0.12465 -0.0398472 -0.00158451
v 0.125679 -0.0430162 -0.000990317
v 0.12465 -0.0430162 -0.00158451
v 0.125414 -0.0430162 -9.71054e-17
v 0.125414 -0.0533155 -1.59028e-16
v 0.125481 -0.0533155 -0.000512626
v 0.125414 -0.0636148 -2.22357e-16
v 0.125481 -0.0636148 -0.000512626
v 0.125679 -0.0533155 -0.000990317
v 0.125481 -0.0739141 -0.000512626
v 0.125679 -0.0636148 -0.000990317
v 0.125414 -0.0739141 -2.82872e-16
v 0.125414 -0.0842134 -3.46202e-16
v 0.125481 -0.0842134 0.000512626
v 0.125481 -0.0739141 0.000512626
v 0.125679 -0.0842134 0.000990317
v 0.125679 -0.0739141 0.000990317
v 0.125481 -0.0636148 0.000512626
v 0.125481 -0.0533155 0.000512626
v 0.125679 -0.0636148 0.000990317
v 0.125481 -0.0430162 0.000512626
v 0.125679 -0.0533155 0.000990317
v 0.125679 -0.0430162 0.000990317
v 0.125994 -0.0533155 0.00140052
v 0.125994 -0.0636148 0.00140052
v 0.125994 -0.0739141 0.00140052
v 0.126404 -0.0739141 0.00171528
v 0.126404 -0.0636148 0.00171528
v 0.126882 -0.0636148 0.00191315
v 0.126882 -0.0739141 0.00191315
v 0.126404 -0.0533155 0.00171528
v 0.126882 -0.0842134 0.00191315
v 0.127394 -0.0842134 0.00198063
v 0.127394 -0.0739141 0.00198063
v 0.127907 -0.0842134 0.00191315
v 0.127907 -0.0739141 0.00191315
v 0.127394 -0.0636148 0.00198063
v 0.127907 -0.0636148 0.00191315
v 0.127394 -0.0533155 0.00198063
v 0.126882 -0.0533155 0.00191315
v 0.126882 -0.0430162 0.00191315
v 0.126404 -0.0430162 0.00171528
v 0.12581 -0.0430162 0.00274445
v 0.126574 -0.0430162 0.00306103
v 0.127394 -0.0430162 0.00198063
v 0.127394 -0.0430162 0.00316901
v 0.128215 -0.0430162 0.00306103
v 0.127907 -0.0430162 0.00191315
v 0.127907 -0.0533155 0.00191315
v 0.127394 -0.0398472 0.00316901
v 0.128215 -0.0398472 0.00306103
v 0.128979 -0.0430162 0.00274445
v 0.128979 -0.0398472 0.00274445
v 0.129635 -0.0430162 0.00224083
v 0.128385 -0.0430162 0.00171528
v 0.128795 -0.0430162 0.00140052
v 0.128795 -0.0533155 0.00140052
v 0.128385 -0.0533155 0.00171528
v 0.128385 -0.0636148 0.00171528
v 0.128795 -0.0636148 0.00140052
v 0.128385 -0.0739141 0.00171528
v 0.128795 -0.0739141 0.00140052
v 0.128795 -0.0842134 0.00140052
v 0.12911 -0.0842134 0.000990317
v 0.12911 -0.0739141 0.000990317
v 0.129308 -0.0842134 0.000512626
v 0.129308 -0.0739141 0.000512626
v 0.12911 -0.0636148 0.000990317
v 0.129308 -0.0636148 0.000512626
v 0.12911 -0.0533155 0.000990317
v 0.12911 -0.0430162 0.000990317
v 0.129308 -0.0533155 0.000512626
v 0.129308 -0.0430162 0.000512626
v 0.129375 -0.0533155 -1.60435e-16
v 0.129375 -0.0636148 -2.23765e-16
v 0.129308 -0.0636148 -0.000512626
v 0.129308 -0.0739141 -0.000512626
v 0.129375 -0.0739141 -2.85687e-16
v 0.129308 -0.0842134 -0.000512626
v 0.12911 -0.0842134 -0.000990317
v 0.12911 -0.0739141 -0.000990317
v 0.128795 -0.0842134 -0.00140052
v 0.128795 -0.0739141 -0.00140052
v 0.12911 -0.0636148 -0.000990317
v 0.128795 -0.0636148 -0.00140052
v 0.12911 -0.0533155 -0.000990317
v 0.129308 -0.0533155 -0.000512626
v 0.129308 -0.0430162 -0.000512626
v 0.129375 -0.0430162 -9.85127e-17
v 0.130563 -0.0430162 -9.85127e-17
v 0.130455 -0.0430162 -0.000820201
v 0.12911 -0.0430162 -0.000990317
v 0.130139 -0.0430162 -0.00158451
v 0.128795 -0.0430162 -0.00140052
v 0.128795 -0.0533155 -0.00140052
v 0.128385 -0.0533155 -0.00171528
v 0.128385 -0.0636148 -0.00171528
v 0.127907 -0.0636148 -0.00191315
v 0.128385 -0.0739141 -0.00171528
v 0.127907 -0.0739141 -0.00191315
v 0.127907 -0.0533155 -0.00191315
v 0.127394 -0.0739141 -0.00198063
v 0.127394 -0.0636148 -0.00198063
v 0.128385 -0.0430162 -0.00171528
v 0.127907 -0.0430162 -0.00191315
v 0.127394 -0.0533155 -0.00198063
v 0.127394 -0.0430162 -0.00198063
v 0.126882 -0.0533155 -0.00191315
v 0.126882 -0.0636148 -0.00191315
v 0.126882 -0.0739141 -0.00191315
v 0.126404 -0.0739141 -0.00171528
v 0.126404 -0.0636148 -0.00171528
v 0.125994 -0.0636148 -0.00140052
v 0.125994 -0.0739141 -0.00140052
v 0.126404 -0.0533155 -0.00171528
v 0.125994 -0.0842134 -0.00140052
v 0.125679 -0.0842134 -0.000990317
v 0.125679 -0.0739141 -0.000990317
v 0.125481 -0.0842134 -0.000512626
v 0.124621 -0.0842134 -3.46202e-16
v 0.124716 -0.0842134 -0.000717676
v 0.124621 -0.0873824 -3.65904e-16
v 0.124716 -0.0873824 -0.000717676
v 0.124993 -0.0842134 -0.00138644
v 0.124716 -0.0873824 0.000717676
v 0.0741555 -0.0873824 0.00275702
v 0.0722541 -0.0873824 0.00259404
v 0.0722541 -0.0873824 -0.00259404
v 0.0741555 -0.0873824 -0.00275702
v 0.0751062 -0.0398472 -0.00283851
v 0.0741555 -0.0398472 -0.00275702
v 0.0751062 -0.0873824 -0.00283851
v 0.0760569 -0.0398472 -0.00291999
v 0.0779583 -0.0398472 -0.00306939
v 0.0760569 -0.0873824 -0.00291999
v 0.0798597 -0.0398472 -0.00321878
v 0.0779583 -0.0873824 -0.00306939
v 0.0798597 -0.0873824 -0.00321878
v 0.081761 -0.0398472 -0.00336818
v 0.081761 -0.0873824 -0.00336818
v 0.0836624 -0.0398472 -0.00351757
v 0.0836624 -0.0873824 -0.00351757
v 0.0846131 -0.0398472 -0.00358548
v 0.0855639 -0.0398472 -0.00365339
v 0.0846131 -0.0873824 -0.00358548
v 0.124993 -0.0873824 -0.00138644
v 0.0855639 -0.0873824 -0.00365339
v 0.0874652 -0.0398472 -0.0037892
v 0.0874652 -0.0873824 -0.0037892
v 0.0893666 -0.0398472 -0.00391143
v 0.0893666 -0.0873824 -0.00391143
v 0.0912681 -0.0398472 -0.00403367
v 0.125154 -0.0398472 -0.00224083
v 0.0931694 -0.0398472 -0.0041559
v 0.0912681 -0.0873824 -0.00403367
v 0.125434 -0.0873824 -0.00196073
v 0.0931694 -0.0873824 -0.0041559
v 0.0941201 -0.0398472 -0.00421022
v 0.0941201 -0.0873824 -0.00421022
v 0.0950708 -0.0398472 -0.00426455
v 0.0950708 -0.0873824 -0.00426455
v 0.0969721 -0.0398472 -0.00435962
v 0.100775 -0.0398472 -0.0045226
v 0.0969721 -0.0873824 -0.00435962
v 0.126008 -0.0873824 -0.00240139
v 0.100775 -0.0873824 -0.0045226
v 0.102676 -0.0398472 -0.00460408
v 0.102676 -0.0873824 -0.00460408
v 0.12581 -0.0398472 -0.00274445
v 0.104578 -0.0398472 -0.00465841
v 0.108381 -0.0398472 -0.0047399
v 0.104578 -0.0873824 -0.00465841
v 0.110282 -0.0398472 -0.00475348
v 0.108381 -0.0873824 -0.0047399
v 0.126677 -0.0873824 -0.0026784
v 0.110282 -0.0873824 -0.00475348
v 0.112183 -0.0398472 -0.00475348
v 0.112183 -0.0873824 -0.00475348
v 0.113134 -0.0873824 -0.0047399
v 0.113134 -0.0398472 -0.0047399
v 0.117887 -0.0873824 -0.00463125
v 0.114085 -0.0398472 -0.0047399
v 0.115986 -0.0873824 -0.00469915
v 0.114085 -0.0873824 -0.0047399
v 0.117887 -0.0398472 -0.00463125
v 0.115986 -0.0398472 -0.00469915
v 0.126574 -0.0398472 -0.00306103
v 0.119789 -0.0398472 -0.00454976
v 0.12169 -0.0398472 -0.00442753
v 0.119789 -0.0873824 -0.00454976
v 0.122641 -0.0398472 -0.00435962
v 0.12169 -0.0873824 -0.00442753
v 0.122641 -0.0873824 -0.00435962
v 0.123592 -0.0398472 -0.00427813
v 0.123592 -0.0873824 -0.00427813
v 0.125493 -0.0398472 -0.00408799
v 0.127394 -0.0398472 -0.00385711
v 0.125493 -0.0873824 -0.00408799
v 0.127394 -0.0398472 -0.00316901
v 0.128345 -0.0398472 -0.00370771
v 0.127394 -0.0873824 -0.00385711
v 0.127394 -0.0873824 -0.00277289
v 0.128345 -0.0873824 -0.00370771
v 0.129296 -0.0398472 -0.00354474
v 0.129296 -0.0873824 -0.00354474
v 0.129771 -0.0398472 -0.00346325
v 0.129771 -0.0873824 -0.00346325
v 0.130247 -0.0398472 -0.00336818
v 0.128215 -0.0398472 -0.00306103
v 0.131197 -0.0398472 -0.00316446
v 0.130247 -0.0873824 -0.00336818
v 0.131197 -0.0873824 -0.00316446
v 0.132148 -0.0398472 -0.00293358
v 0.132148 -0.0873824 -0.00293358
v 0.128979 -0.0398472 -0.00274445
v 0.133099 -0.0398472 -0.00266195
v 0.129635 -0.0398472 -0.00224083
v 0.133574 -0.0398472 -0.00251255
v 0.133099 -0.0873824 -0.00266195
v 0.134049 -0.0398472 -0.002336
v 0.133574 -0.0873824 -0.00251255
v 0.128781 -0.0873824 -0.00240139
v 0.134049 -0.0873824 -0.002336
v 0.129355 -0.0873824 -0.00196073
v 0.134525 -0.0398472 -0.00214586
v 0.134525 -0.0873824 -0.00214586
v 0.129796 -0.0842134 -0.00138644
v 0.129355 -0.0842134 -0.00196073
v 0.129796 -0.0873824 -0.00138644
v 0.13538 -0.0873824 -0.00173841
v 0.13519 -0.0873824 -0.00184707
v 0.135 -0.0873824 -0.00194214
v 0.135 -0.0398472 -0.00194214
v 0.13519 -0.0398472 -0.00184707
v 0.130139 -0.0398472 -0.00158451
v 0.13538 -0.0398472 -0.00173841
v 0.136141 -0.0398472 -0.00124949
v 0.130455 -0.0398472 -0.000820201
v 0.129635 -0.0430162 -0.00224083
v 0.13557 -0.0398472 -0.00162976
v 0.135706 -0.0398472 -0.00154828
v 0.135761 -0.0398472 -0.00152111
v 0.135951 -0.0398472 -0.0013853
v 0.136046 -0.0398472 -0.00131739
v 0.136046 -0.0873824 -0.00131739
v 0.136141 -0.0873824 -0.00124949
v 0.136182 -0.0398472 -0.00120874
v 0.136236 -0.0398472 -0.001168
v 0.136182 -0.0873824 -0.00120874
v 0.136236 -0.0873824 -0.001168
v 0.136331 -0.0398472 -0.00108651
v 0.136331 -0.0873824 -0.00108651
v 0.136426 -0.0398472 -0.00099144
v 0.136426 -0.0873824 -0.00099144
v 0.136521 -0.0398472 -0.000882789
v 0.136616 -0.0398472 -0.000774138
v 0.136521 -0.0873824 -0.000882789
v 0.130073 -0.0873824 -0.000717676
v 0.136616 -0.0873824 -0.000774138
v 0.136711 -0.0398472 -0.000624743
v 0.136711 -0.0873824 -0.000624743
v 0.136806 -0.0398472 -0.000448185
v 0.130563 -0.0398472 -7.88102e-17
v 0.136901 -0.0398472 -8.16248e-17
v 0.136806 -0.0873824 -0.000448185
v 0.136806 -0.0398472 0.000448185
v 0.136901 -0.0873824 -3.70126e-16
v 0.130167 -0.0873824 -3.67312e-16
v 0.136806 -0.0873824 0.000448185
v 0.136711 -0.0398472 0.000624743
v 0.136711 -0.0873824 0.000624743
v 0.130073 -0.0873824 0.000717676
v 0.129796 -0.0842134 0.00138644
v 0.130073 -0.0842134 0.000717676
v 0.129796 -0.0873824 0.00138644
v 0.136331 -0.0873824 0.00108651
v 0.136426 -0.0873824 0.00099144
v 0.136521 -0.0873824 0.000882789
v 0.136616 -0.0873824 0.000774138
v 0.136616 -0.0398472 0.000774138
v 0.136521 -0.0398472 0.000882789
v 0.130455 -0.0398472 0.000820201
v 0.136426 -0.0398472 0.00099144
v 0.130455 -0.0430162 0.000820201
v 0.136331 -0.0398472 0.00108651
v 0.136236 -0.0398472 0.001168
v 0.136182 -0.0398472 0.00120874
v 0.136141 -0.0398472 0.00124949
v 0.130139 -0.0398472 0.00158451
v 0.130139 -0.0430162 0.00158451
v 0.129635 -0.0398472 0.00224083
v 0.133099 -0.0398472 0.00266195
v 0.135 -0.0398472 0.00194214
v 0.134525 -0.0398472 0.00214586
v 0.134049 -0.0398472 0.002336
v 0.133574 -0.0398472 0.00251255
v 0.133574 -0.0873824 0.00251255
v 0.132148 -0.0398472 0.00293358
v 0.133099 -0.0873824 0.00266195
v 0.128781 -0.0873824 0.00240139
v 0.134049 -0.0873824 0.002336
v 0.129355 -0.0873824 0.00196073
v 0.134525 -0.0873824 0.00214586
v 0.135 -0.0873824 0.00194214
v 0.13519 -0.0873824 0.00184707
v 0.13538 -0.0873824 0.00173841
v 0.13519 -0.0398472 0.00184707
v 0.13538 -0.0398472 0.00173841
v 0.13557 -0.0873824 0.00162976
v 0.13557 -0.0398472 0.00162976
v 0.135706 -0.0873824 0.00154828
v 0.135706 -0.0398472 0.00154828
v 0.135761 -0.0398472 0.00152111
v 0.135761 -0.0873824 0.00152111
v 0.135951 -0.0873824 0.0013853
v 0.136046 -0.0873824 0.00131739
v 0.135951 -0.0398472 0.0013853
v 0.136046 -0.0398472 0.00131739
v 0.136141 -0.0873824 0.00124949
v 0.136182 -0.0873824 0.00120874
v 0.136236 -0.0873824 0.001168
v 0.128781 -0.0842134 0.00240139
v 0.129355 -0.0842134 0.00196073
v 0.128385 -0.0842134 0.00171528
v 0.128112 -0.0842134 0.0026784
v 0.128112 -0.0873824 0.0026784
v 0.127394 -0.0842134 0.00277289
v 0.127394 -0.0873824 0.00277289
v 0.132148 -0.0873824 0.00293358
v 0.131197 -0.0398472 0.00316446
v 0.131197 -0.0873824 0.00316446
v 0.130247 -0.0398472 0.00336818
v 0.129771 -0.0398472 0.00346325
v 0.130247 -0.0873824 0.00336818
v 0.129771 -0.0873824 0.00346325
v 0.129296 -0.0398472 0.00354474
v 0.129296 -0.0873824 0.00354474
v 0.128345 -0.0398472 0.00370771
v 0.128345 -0.0873824 0.00370771
v 0.127394 -0.0398472 0.00385711
v 0.126574 -0.0398472 0.00306103
v 0.125493 -0.0398472 0.00408799
v 0.127394 -0.0873824 0.00385711
v 0.126677 -0.0873824 0.0026784
v 0.125493 -0.0873824 0.00408799
v 0.123592 -0.0398472 0.00427813
v 0.123592 -0.0873824 0.00427813
v 0.122641 -0.0398472 0.00435962
v 0.122641 -0.0873824 0.00435962
v 0.12169 -0.0398472 0.00442753
v 0.119789 -0.0398472 0.00454976
v 0.12169 -0.0873824 0.00442753
v 0.119789 -0.0873824 0.00454976
v 0.117887 -0.0398472 0.00463125
v 0.117887 -0.0873824 0.00463125
v 0.115986 -0.0398472 0.00469915
v 0.115986 -0.0873824 0.00469915
v 0.113134 -0.0398472 0.0047399
v 0.114085 -0.0398472 0.0047399
v 0.114085 -0.0873824 0.0047399
v 0.112183 -0.0398472 0.00475348
v 0.113134 -0.0873824 0.0047399
v 0.110282 -0.0398472 0.00475348
v 0.12581 -0.0398472 0.00274445
v 0.108381 -0.0398472 0.0047399
v 0.112183 -0.0873824 0.00475348
v 0.110282 -0.0873824 0.00475348
v 0.104578 -0.0398472 0.00465841
v 0.108381 -0.0873824 0.0047399
v 0.104578 -0.0873824 0.00465841
v 0.102676 -0.0398472 0.00460408
v 0.126008 -0.0873824 0.00240139
v 0.102676 -0.0873824 0.00460408
v 0.125434 -0.0842134 0.00196073
v 0.126008 -0.0842134 0.00240139
v 0.125434 -0.0873824 0.00196073
v 0.0950708 -0.0873824 0.00426455
v 0.0969721 -0.0873824 0.00435962
v 0.100775 -0.0873824 0.0045226
v 0.0969721 -0.0398472 0.00435962
v 0.0950708 -0.0398472 0.00426455
v 0.125154 -0.0398472 0.00224083
v 0.0941201 -0.0398472 0.00421022
v 0.0931694 -0.0398472 0.0041559
v 0.0941201 -0.0873824 0.00421022
v 0.0912681 -0.0398472 0.00403367
v 0.0931694 -0.0873824 0.0041559
v 0.0893666 -0.0398472 0.00391143
v 0.12465 -0.0398472 0.00158451
v 0.0912681 -0.0873824 0.00403367
v 0.0893666 -0.0873824 0.00391143
v 0.0874652 -0.0398472 0.0037892
v 0.124993 -0.0873824 0.00138644
v 0.0874652 -0.0873824 0.0037892
v 0.124993 -0.0842134 0.00138644
v 0.124716 -0.0842134 0.000717676
v 0.081761 -0.0873824 0.00336818
v 0.0836624 -0.0873824 0.00351757
v 0.0855639 -0.0873824 0.00365339
v 0.0846131 -0.0873824 0.00358548
v 0.081761 -0.0398472 0.00336818
v 0.0836624 -0.0398472 0.00351757
v 0.0798597 -0.0398472 0.00321878
v 0.124333 -0.0398472 0.000820201
v 0.124225 -0.0398472 -7.74029e-17
v 0.0741555 -0.0398472 0.00275702
v 0.124333 -0.0430162 0.000820201
v 0.12465 -0.0430162 0.00158451
v 0.0751062 -0.0398472 0.00283851
v 0.0760569 -0.0398472 0.00291999
v 0.0779583 -0.0398472 0.00306939
v 0.0779583 -0.0873824 0.00306939
v 0.0798597 -0.0873824 0.00321878
v 0.0760569 -0.0873824 0.00291999
v 0.0751062 -0.0873824 0.00283851
v 0.0722541 -0.0398472 0.00259404
v 0.0703527 -0.0398472 -0.00244465
v 0.0703527 -0.0398472 0.00244465
v 0.0722541 -0.0398472 -0.00259404
v 0.0684513 -0.0873824 -0.00228167
v 0.0684513 -0.0398472 -0.00228167
v 0.0703527 -0.0873824 -0.00244465
v 0.0703527 -0.0873824 0.00244465
v 0.0684513 -0.0398472 0.00228167
v 0.0684513 -0.0873824 0.00228167
v 0.0665499 -0.0398472 -0.00211869
v 0.0665499 -0.0398472 0.00211869
v 0.0646486 -0.0398472 -0.00195572
v 0.0646486 -0.0398472 0.00195572
v 0.0665499 -0.0873824 0.00211869
v 0.0627471 -0.0398472 -0.00179274
v 0.0627471 -0.0398472 0.00179274
v 0.0646486 -0.0873824 0.00195572
v 0.0646486 -0.0873824 -0.00195572
v 0.0627471 -0.0873824 -0.00179274
v 0.0627471 -0.0873824 0.00179274
v 0.0665499 -0.0873824 -0.00211869
v 0.0589444 -0.0398472 0.00146679
v 0.0589444 -0.0873824 -0.00146679
v 0.0589444 -0.0873824 0.00146679
v 0.0570429 -0.0873824 -0.00130381
v 0.0589444 -0.0398472 -0.00146679
v 0.0570429 -0.0398472 -0.00130381
v 0.0570429 -0.0398472 0.00130381
v 0.0551416 -0.0398472 -0.00114083
v 0.0551416 -0.0873824 -0.00114083
v 0.0551416 -0.0873824 0.00114083
v 0.0532402 -0.0873824 -0.000977858
v 0.0570429 -0.0873824 0.00130381
v 0.0551416 -0.0398472 0.00114083
v 0.0532402 -0.0873824 0.000977858
v 0.0532402 -0.0398472 0.000977858
v 0.0532402 -0.0398472 -0.000977858
v 0.0513388 -0.0398472 0.000814882
v 0.0513388 -0.0398472 -0.000814882
v 0.0513388 -0.0873824 -0.000814882
v 0.0513388 -0.0873824 0.000814882
v 0.0494374 -0.0873824 -0.000651906
v 0.0494374 -0.0873824 0.000651906
v 0.0494374 -0.0398472 -0.000651906
v 0.0489621 -0.0873824 -0.000611161
v 0.0489621 -0.0398472 0.000611161
v 0.0494374 -0.0398472 0.000651906
v 0.0489621 -0.0873824 0.000611161
v 0.0489621 -0.0398472 -0.000611161
v 0.047536 -0.0398472 0.000488929
v 0.047536 -0.0398472 -0.000488929
v 0.0465853 -0.0873824 -0.000407441
v 0.0465853 -0.0398472 -0.000407441
v 0.047536 -0.0873824 -0.000488929
v 0.047536 -0.0873824 0.000488929
v 0.0465853 -0.0398472 0.000407441
v 0.0465853 -0.0873824 0.000407441
v 0.0456347 -0.0398472 -0.000325953
v 0.0456347 -0.0398472 0.000325953
v 0.0442086 -0.0398472 -0.00020372
v 0.0442086 -0.0873824 -0.00020372
v 0.0456347 -0.0873824 -0.000325953
v 0.0456347 -0.0873824 0.000325953
v 0.0442086 -0.0873824 0.00020372
v 0.0437332 -0.0873824 -0.000162976
v 0.0437332 -0.0873824 0.000162976
v 0.0430134 -0.0873824 -9.50696e-05
v 0.0437332 -0.0398472 -0.000162976
v 0.0437332 -0.0398472 0.000162976
v 0.0430134 -0.0398472 9.50696e-05
v 0.0430134 -0.0873824 9.50696e-05
v 0.0430134 -0.0398472 -9.50696e-05
v 0.0418318 -0.0398472 -5.77003e-17
v 0.0418318 -0.0873824 -3.46202e-16
v 0.0442086 -0.0398472 0.00020372
v 0.125154 -0.0430162 0.00224083
v 0.125994 -0.0430162 0.00140052
v 0.0846131 -0.0398472 0.00358548
v 0.0855639 -0.0398472 0.00365339
v 0.125994 -0.0842134 0.00140052
v 0.126404 -0.0842134 0.00171528
v 0.100775 -0.0398472 0.0045226
v 0.126677 -0.0842134 0.0026784
v 0.130167 -0.0842134 -3.49017e-16
v 0.129375 -0.0842134 -3.49017e-16
v 0.130073 -0.0842134 -0.000717676
v 0.135951 -0.0873824 -0.0013853
v 0.135761 -0.0873824 -0.00152111
v 0.135706 -0.0873824 -0.00154828
v 0.13557 -0.0873824 -0.00162976
v 0.128979 -0.0430162 -0.00274445
v 0.128215 -0.0430162 -0.00306103
v 0.127394 -0.0430162 -0.00316901
v 0.126574 -0.0430162 -0.00306103
v 0.12581 -0.0430162 -0.00274445
v 0.126882 -0.0430162 -0.00191315
v 0.126404 -0.0430162 -0.00171528
v 0.125154 -0.0430162 -0.00224083
v 0.125994 -0.0430162 -0.00140052
v 0.125994 -0.0533155 -0.00140052
v 0.128385 -0.0842134 -0.00171528
v 0.128781 -0.0842134 -0.00240139
v 0.127907 -0.0842134 -0.00191315
v 0.128112 -0.0842134 -0.0026784
v 0.128112 -0.0873824 -0.0026784
v 0.127394 -0.0842134 -0.00198063
v 0.127394 -0.0842134 -0.00277289
v 0.126677 -0.0842134 -0.0026784
v 0.126008 -0.0842134 -0.00240139
v 0.126882 -0.0842134 -0.00191315
v 0.126404 -0.0842134 -0.00171528
v 0.125434 -0.0842134 -0.00196073
# </points>

# <faces count="1064">
g patch0
f 1 2 3
f 2 4 3
f 2 5 4
f 6 7 2
f 7 5 2
f 6 2 1
f 8 9 1
f 3 8 1
f 1 10 6
f 1 9 10
f 9 11 10
f 10 12 13
f 6 10 13
f 10 11 12
f 12 14 15
f 13 12 15
f 12 16 14
f 11 16 12
f 17 14 16
f 17 16 18
f 18 16 19
f 11 19 16
f 18 19 20
f 20 19 21
f 22 21 19
f 22 19 11
f 9 22 11
f 23 22 9
f 24 21 22
f 23 24 22
f 8 23 9
f 25 23 8
f 25 26 23
f 26 24 23
f 27 26 25
f 27 28 26
f 28 29 26
f 26 29 24
f 29 30 24
f 29 31 30
f 32 31 29
f 28 32 29
f 33 34 32
f 35 33 32
f 32 34 31
f 35 32 28
f 36 31 34
f 36 34 37
f 37 34 38
f 33 38 34
f 37 38 39
f 39 38 40
f 41 40 38
f 41 38 33
f 42 40 41
f 43 42 41
f 44 41 33
f 43 41 44
f 45 43 44
f 44 33 35
f 46 44 35
f 45 44 46
f 45 47 48
f 46 47 45
f 45 48 49
f 49 43 45
f 49 48 50
f 49 50 51
f 52 53 49
f 49 51 52
f 49 53 43
f 50 54 51
f 51 54 55
f 51 55 56
f 52 51 56
f 56 55 57
f 56 57 58
f 59 56 58
f 52 56 59
f 60 61 59
f 59 58 60
f 59 61 62
f 59 62 52
f 62 63 53
f 52 62 53
f 62 64 63
f 61 64 62
f 53 63 42
f 63 65 42
f 63 66 65
f 64 66 63
f 67 65 66
f 67 66 68
f 68 66 69
f 64 69 66
f 68 69 70
f 70 69 71
f 72 71 69
f 72 69 64
f 73 71 72
f 74 73 72
f 61 72 64
f 74 72 61
f 60 74 61
f 75 74 60
f 75 76 74
f 76 73 74
f 77 76 75
f 77 78 76
f 78 79 76
f 76 79 73
f 80 81 79
f 78 80 79
f 79 82 73
f 79 81 82
f 83 82 81
f 83 81 84
f 84 81 85
f 80 85 81
f 84 85 86
f 86 85 87
f 88 87 85
f 88 85 80
f 89 87 88
f 90 89 88
f 91 88 80
f 90 88 91
f 92 90 91
f 91 80 78
f 93 91 78
f 92 91 93
f 92 94 95
f 93 94 92
f 92 95 96
f 96 90 92
f 96 95 97
f 96 97 98
f 98 99 96
f 96 99 90
f 100 101 99
f 98 100 99
f 99 89 90
f 99 101 89
f 100 102 101
f 101 103 89
f 101 104 103
f 102 104 101
f 105 102 100
f 102 106 104
f 107 106 102
f 105 107 102
f 108 105 100
f 109 105 108
f 109 110 105
f 110 107 105
f 111 110 109
f 111 112 110
f 112 113 110
f 110 113 107
f 113 114 107
f 113 115 114
f 116 115 113
f 112 116 113
f 117 118 116
f 119 117 116
f 116 118 115
f 119 116 112
f 120 115 118
f 120 118 121
f 121 118 122
f 117 122 118
f 15 14 122
f 123 122 14
f 121 122 123
f 15 122 117
f 17 124 123
f 123 14 17
f 123 125 121
f 123 124 125
f 126 125 124
f 127 128 125
f 121 125 128
f 127 125 126
f 126 124 129
f 129 130 126
f 126 130 131
f 126 131 132
f 132 133 126
f 126 133 127
f 134 133 135
f 133 132 135
f 127 133 136
f 136 133 134
f 4 134 135
f 4 137 134
f 137 136 134
f 138 137 4
f 139 136 137
f 138 139 137
f 4 140 138
f 140 141 138
f 141 139 138
f 139 141 127
f 127 141 142
f 142 141 140
f 143 142 140
f 127 142 144
f 144 142 143
f 4 143 140
f 5 143 4
f 145 144 143
f 145 143 5
f 146 144 145
f 147 146 145
f 5 147 145
f 5 148 147
f 148 149 147
f 149 146 147
f 150 146 149
f 149 151 150
f 151 149 148
f 152 151 148
f 150 151 153
f 153 151 152
f 152 148 5
f 154 153 152
f 5 154 152
f 155 153 154
f 156 155 154
f 5 156 154
f 157 158 156
f 158 159 156
f 157 156 5
f 159 155 156
f 160 155 159
f 160 159 161
f 161 159 158
f 162 161 158
f 161 163 160
f 163 161 162
f 157 162 158
f 164 163 162
f 164 162 157
f 165 163 164
f 157 166 164
f 166 165 164
f 157 167 166
f 167 168 166
f 168 165 166
f 169 168 170
f 169 165 168
f 170 168 167
f 171 170 167
f 170 172 169
f 172 170 171
f 173 171 167
f 173 174 171
f 174 172 171
f 175 174 173
f 176 172 174
f 175 176 174
f 173 177 175
f 177 178 175
f 178 176 175
f 179 178 180
f 179 176 178
f 180 178 177
f 181 180 177
f 182 183 180
f 182 180 181
f 180 183 179
f 183 182 184
f 185 179 183
f 186 183 184
f 187 183 188
f 188 183 186
f 185 183 187
f 189 187 190
f 187 188 190
f 185 187 189
f 191 189 190
f 192 189 191
f 192 185 189
f 191 193 192
f 194 185 192
f 193 194 192
f 191 195 193
f 195 196 193
f 196 194 193
f 196 179 194
f 197 179 196
f 197 196 195
f 198 197 195
f 199 179 197
f 199 197 198
f 198 195 191
f 191 200 198
f 200 199 198
f 191 201 200
f 202 199 200
f 201 202 200
f 203 204 201
f 204 205 201
f 203 201 191
f 205 202 201
f 205 206 179
f 207 206 205
f 205 179 202
f 207 205 204
f 208 207 204
f 209 206 207
f 209 207 208
f 208 204 203
f 210 209 208
f 203 210 208
f 211 209 210
f 212 211 210
f 203 212 210
f 213 214 212
f 214 215 212
f 213 212 203
f 215 211 212
f 215 206 211
f 216 206 215
f 216 215 214
f 217 216 214
f 218 206 216
f 218 216 217
f 213 217 214
f 217 219 220
f 219 217 213
f 220 218 217
f 220 221 222
f 220 219 221
f 223 218 220
f 222 223 220
f 222 221 224
f 224 225 222
f 225 223 222
f 225 226 223
f 227 226 225
f 227 225 224
f 227 228 226
f 229 227 224
f 230 228 227
f 230 227 229
f 228 231 232
f 233 231 228
f 228 232 226
f 234 233 228
f 234 228 235
f 235 228 236
f 236 228 230
f 236 230 237
f 238 236 237
f 235 236 238
f 238 239 240
f 240 235 238
f 237 239 238
f 241 239 242
f 97 242 239
f 97 239 243
f 243 239 221
f 237 221 239
f 240 239 244
f 244 239 245
f 245 239 246
f 246 239 247
f 247 239 248
f 248 239 241
f 241 249 248
f 250 249 241
f 241 242 251
f 251 250 241
f 251 242 252
f 252 253 251
f 253 250 251
f 253 233 250
f 254 233 253
f 254 253 252
f 255 254 252
f 256 233 254
f 256 254 255
f 252 242 255
f 257 256 255
f 255 242 257
f 258 256 257
f 257 242 259
f 259 258 257
f 259 242 260
f 260 261 259
f 261 258 259
f 261 262 258
f 263 262 261
f 263 261 260
f 264 263 260
f 265 262 263
f 265 263 264
f 260 242 264
f 266 265 264
f 264 242 266
f 266 267 268
f 266 242 267
f 269 265 266
f 268 269 266
f 268 267 270
f 270 271 268
f 271 269 268
f 271 272 269
f 273 272 271
f 273 271 270
f 274 273 270
f 275 276 273
f 275 273 274
f 273 276 272
f 276 277 278
f 279 277 276
f 276 278 272
f 280 279 276
f 280 276 281
f 281 276 282
f 282 276 283
f 283 276 275
f 283 275 284
f 285 283 284
f 282 283 285
f 285 286 287
f 287 282 285
f 284 286 285
f 94 286 267
f 288 286 94
f 270 267 286
f 270 286 274
f 274 286 284
f 287 286 289
f 289 286 290
f 290 286 291
f 291 286 292
f 292 286 293
f 288 293 286
f 75 294 288
f 294 293 288
f 93 288 94
f 75 288 77
f 77 288 93
f 60 58 294
f 58 295 294
f 294 295 293
f 60 294 75
f 296 295 57
f 58 57 295
f 297 293 295
f 297 295 298
f 298 295 299
f 299 295 300
f 300 295 296
f 296 301 300
f 302 303 296
f 303 301 296
f 296 57 302
f 301 304 305
f 303 304 301
f 301 305 300
f 305 304 306
f 305 306 307
f 305 307 299
f 300 305 299
f 307 306 308
f 307 308 298
f 299 307 298
f 298 308 297
f 308 309 297
f 308 306 309
f 309 306 310
f 309 310 311
f 297 309 311
f 311 293 297
f 311 310 312
f 312 293 311
f 312 313 314
f 310 313 312
f 314 293 312
f 314 315 316
f 313 315 314
f 316 293 314
f 317 293 316
f 316 318 317
f 315 318 316
f 318 279 319
f 315 279 318
f 318 319 317
f 319 279 320
f 319 320 321
f 317 319 321
f 321 320 322
f 322 293 321
f 321 293 317
f 322 323 292
f 320 323 322
f 292 293 322
f 323 324 292
f 320 279 323
f 323 279 324
f 324 279 325
f 324 325 291
f 292 324 291
f 325 279 280
f 325 280 290
f 291 325 290
f 313 279 315
f 310 279 313
f 310 306 279
f 304 326 306
f 306 327 279
f 306 326 327
f 327 328 67
f 326 328 327
f 327 67 277
f 279 327 277
f 328 40 65
f 39 40 328
f 328 65 67
f 326 39 328
f 304 329 326
f 329 39 326
f 330 331 329
f 331 37 329
f 329 37 39
f 330 329 304
f 332 331 330
f 330 333 332
f 303 330 304
f 333 330 303
f 333 303 302
f 334 333 302
f 332 333 335
f 335 333 334
f 334 55 336
f 302 55 334
f 336 335 334
f 336 54 337
f 337 338 336
f 336 55 54
f 338 335 336
f 332 335 338
f 338 339 332
f 339 338 337
f 340 339 337
f 332 339 341
f 341 339 340
f 337 54 340
f 342 341 340
f 340 54 342
f 343 341 342
f 344 343 342
f 342 54 344
f 344 345 346
f 346 347 344
f 344 54 345
f 347 343 344
f 343 347 332
f 348 347 349
f 332 347 348
f 349 347 346
f 350 349 346
f 348 349 351
f 351 349 350
f 346 345 350
f 352 351 350
f 350 345 352
f 353 351 352
f 352 345 354
f 354 353 352
f 354 345 355
f 355 356 354
f 356 353 354
f 348 353 356
f 348 356 357
f 357 356 355
f 358 357 355
f 357 359 348
f 359 357 358
f 355 345 358
f 360 359 358
f 358 345 360
f 361 359 360
f 360 345 362
f 363 361 360
f 360 362 363
f 362 364 363
f 365 366 362
f 366 364 362
f 362 367 365
f 362 368 367
f 345 368 362
f 366 361 364
f 364 361 363
f 368 369 367
f 367 370 365
f 371 370 367
f 369 371 367
f 372 369 368
f 372 373 369
f 373 371 369
f 371 373 348
f 348 373 374
f 374 373 372
f 375 374 372
f 376 374 377
f 377 374 375
f 348 374 376
f 376 378 379
f 380 378 376
f 376 379 348
f 376 381 380
f 376 382 381
f 376 377 383
f 383 382 376
f 382 383 384
f 385 382 384
f 381 382 385
f 386 385 384
f 387 385 386
f 387 381 385
f 386 388 387
f 389 381 387
f 388 389 387
f 386 390 388
f 391 389 388
f 390 391 388
f 392 390 393
f 392 394 390
f 393 390 386
f 394 391 390
f 380 394 395
f 391 394 380
f 395 394 392
f 396 395 392
f 397 395 398
f 398 395 396
f 380 395 397
f 397 399 380
f 397 400 399
f 397 401 129
f 129 400 397
f 397 402 401
f 397 398 403
f 403 404 397
f 397 404 402
f 17 400 124
f 18 400 17
f 18 20 400
f 400 20 399
f 129 124 400
f 405 402 406
f 402 404 406
f 401 402 405
f 393 405 406
f 407 401 405
f 408 407 405
f 408 405 393
f 409 410 408
f 411 409 408
f 411 408 412
f 412 408 393
f 408 410 413
f 408 413 414
f 414 415 408
f 408 415 407
f 414 416 415
f 415 417 407
f 416 417 415
f 416 418 129
f 129 417 416
f 418 416 414
f 413 418 414
f 129 418 419
f 419 418 413
f 129 419 130
f 410 419 413
f 130 419 410
f 129 401 417
f 417 401 407
f 420 410 409
f 420 130 410
f 420 421 422
f 422 131 420
f 420 423 421
f 409 423 420
f 131 130 420
f 421 424 425
f 426 424 421
f 422 421 425
f 423 426 421
f 426 427 424
f 132 131 426
f 132 426 423
f 426 131 427
f 428 427 422
f 427 131 422
f 424 427 429
f 429 427 428
f 422 425 428
f 428 430 431
f 428 425 430
f 431 429 428
f 431 432 433
f 431 430 432
f 434 429 431
f 433 434 431
f 433 435 436
f 436 437 433
f 433 432 435
f 437 434 433
f 438 434 437
f 439 437 440
f 438 437 439
f 440 437 436
f 438 439 432
f 430 438 432
f 441 434 438
f 441 438 430
f 425 441 430
f 424 429 441
f 424 441 425
f 441 429 434
f 442 440 436
f 443 440 444
f 444 440 442
f 439 440 443
f 443 444 445
f 443 445 446
f 435 443 446
f 439 443 435
f 446 445 447
f 442 446 447
f 436 435 446
f 436 446 442
f 448 447 449
f 447 450 449
f 445 450 447
f 442 447 448
f 450 451 452
f 450 452 449
f 445 453 450
f 450 453 451
f 451 453 454
f 452 451 455
f 456 451 454
f 455 451 456
f 454 457 456
f 458 455 456
f 456 459 458
f 456 457 459
f 457 460 459
f 452 460 457
f 449 452 457
f 454 449 457
f 460 461 462
f 460 455 461
f 460 462 459
f 452 455 460
f 462 461 463
f 459 462 464
f 462 465 464
f 462 463 465
f 466 463 467
f 463 461 467
f 465 463 468
f 468 463 466
f 467 469 466
f 470 468 466
f 466 471 470
f 466 469 471
f 471 472 473
f 474 472 471
f 470 471 473
f 469 474 471
f 474 475 472
f 474 468 475
f 465 468 474
f 465 474 469
f 475 468 470
f 476 475 470
f 472 475 477
f 477 475 476
f 476 478 479
f 479 477 476
f 476 473 478
f 470 473 476
f 479 478 480
f 478 481 480
f 473 482 478
f 482 481 478
f 481 483 484
f 482 483 481
f 481 484 485
f 481 485 480
f 485 486 487
f 485 487 488
f 485 484 486
f 480 485 488
f 486 484 489
f 490 486 489
f 487 486 491
f 491 486 490
f 490 492 493
f 493 491 490
f 489 492 490
f 492 494 493
f 487 494 492
f 488 487 492
f 489 488 492
f 494 491 493
f 487 491 494
f 489 484 495
f 495 488 489
f 495 483 479
f 484 483 495
f 479 480 495
f 495 480 488
f 483 477 479
f 482 477 483
f 472 477 482
f 472 482 473
f 467 464 469
f 464 465 469
f 467 461 458
f 458 464 467
f 458 459 464
f 461 455 458
f 448 449 454
f 454 453 448
f 445 444 453
f 453 444 448
f 448 444 442
f 432 439 435
f 409 135 423
f 135 132 423
f 27 411 412
f 412 393 496
f 497 412 496
f 27 412 497
f 497 28 27
f 46 35 497
f 497 496 46
f 497 35 28
f 496 393 386
f 496 386 47
f 46 496 47
f 411 25 3
f 3 409 411
f 25 411 27
f 4 135 409
f 3 4 409
f 393 406 498
f 406 404 498
f 498 403 499
f 404 403 498
f 498 499 393
f 499 398 396
f 403 398 499
f 393 499 396
f 380 399 378
f 399 500 378
f 399 20 500
f 20 21 500
f 500 21 30
f 500 30 501
f 378 500 501
f 501 30 31
f 501 31 36
f 379 501 36
f 378 501 379
f 393 396 392
f 380 389 391
f 380 381 389
f 47 386 368
f 386 502 368
f 386 384 502
f 368 502 375
f 502 377 375
f 383 377 502
f 384 383 502
f 348 379 503
f 379 36 503
f 503 36 37
f 332 503 331
f 503 37 331
f 348 503 332
f 368 375 372
f 371 366 370
f 348 366 371
f 370 366 365
f 47 368 48
f 48 368 345
f 359 361 366
f 348 359 366
f 351 353 348
f 48 345 50
f 50 345 54
f 332 341 343
f 302 57 55
f 290 280 289
f 289 281 287
f 280 281 289
f 281 282 287
f 284 275 274
f 277 68 278
f 272 278 504
f 278 70 504
f 278 68 70
f 504 505 83
f 504 70 505
f 262 504 506
f 504 83 506
f 272 504 262
f 506 83 84
f 233 506 231
f 506 84 231
f 262 506 233
f 505 71 82
f 70 71 505
f 505 82 83
f 277 67 68
f 269 272 262
f 269 262 265
f 94 267 95
f 95 267 242
f 256 262 233
f 258 262 256
f 250 233 249
f 249 233 507
f 249 507 248
f 248 507 247
f 507 508 247
f 507 233 508
f 508 233 509
f 508 509 246
f 247 508 246
f 509 233 510
f 509 510 245
f 246 509 245
f 510 233 234
f 510 234 244
f 245 510 244
f 244 234 240
f 98 97 243
f 243 221 511
f 108 243 511
f 98 243 108
f 511 221 219
f 511 219 512
f 109 511 512
f 108 511 109
f 512 219 213
f 512 213 513
f 111 512 513
f 109 512 111
f 513 213 203
f 513 203 514
f 111 513 514
f 514 203 191
f 514 191 515
f 516 514 515
f 111 514 516
f 516 515 517
f 516 112 111
f 517 119 516
f 516 119 112
f 517 515 518
f 517 518 519
f 519 520 517
f 517 520 119
f 13 15 520
f 519 13 520
f 520 117 119
f 520 15 117
f 519 518 7
f 519 7 6
f 6 13 519
f 515 173 518
f 518 173 157
f 518 157 7
f 515 191 173
f 95 242 97
f 234 235 240
f 229 221 237
f 237 230 229
f 232 521 522
f 232 86 521
f 231 86 232
f 226 232 522
f 522 521 523
f 522 523 524
f 226 522 525
f 525 522 524
f 524 523 526
f 526 527 524
f 206 524 527
f 525 524 206
f 526 528 527
f 179 527 528
f 206 527 179
f 169 528 529
f 530 529 528
f 530 528 526
f 179 528 169
f 526 106 530
f 530 106 114
f 530 114 531
f 531 529 530
f 531 114 115
f 531 115 120
f 120 532 531
f 531 532 529
f 150 532 128
f 120 128 532
f 160 529 532
f 160 532 150
f 169 529 160
f 523 104 526
f 526 104 106
f 223 226 525
f 218 525 206
f 223 525 218
f 521 103 523
f 523 103 104
f 521 87 103
f 86 87 521
f 231 84 86
f 224 221 229
f 211 206 209
f 202 179 199
f 194 179 185
f 191 184 173
f 191 190 184
f 184 190 186
f 190 188 186
f 173 184 177
f 184 181 177
f 184 182 181
f 169 176 179
f 169 172 176
f 173 167 157
f 160 165 169
f 160 163 165
f 150 155 160
f 7 157 5
f 150 153 155
f 150 128 127
f 150 144 146
f 127 144 150
f 127 136 139
f 121 128 120
f 107 114 106
f 108 100 98
f 89 103 87
f 93 78 77
f 73 82 71
f 42 65 40
f 53 42 43
f 24 30 21
f 3 25 8
# </faces>
