# Wavefront OBJ file written 2026-08-03T01:34:49
o ensamble_todo_v2_cfd_4

# points : 532
# faces  : 1064
# zones  : 1
#   0  patch0  (nFaces: 1064)

# <points count="532">
v 0.138157 0.000512626 -0.0430162
v 0.137009 0.000820201 -0.0430162
v 0.136901 -2.25172e-17 -0.0430162
v 0.137009 0.000820201 -0.0398472
v 0.137326 0.00158451 -0.0398472
v 0.138355 0.000990317 -0.0430162
v 0.137326 0.00158451 -0.0430162
v 0.13809 -2.25172e-17 -0.0430162
v 0.13809 -2.25172e-17 -0.0533155
v 0.138157 0.000512626 -0.0533155
v 0.138355 0.000990317 -0.0533155
v 0.13809 -2.25172e-17 -0.0636148
v 0.138157 0.000512626 -0.0636148
v 0.13809 -2.25172e-17 -0.0739141
v 0.138157 0.000512626 -0.0739141
v 0.138355 0.000990317 -0.0636148
v 0.13809 -2.25172e-17 -0.0842134
v 0.138157 -0.000512626 -0.0842134
v 0.138157 -0.000512626 -0.0739141
v 0.138355 -0.000990317 -0.0842134
v 0.138355 -0.000990317 -0.0739141
v 0.138157 -0.000512626 -0.0636148
v 0.138355 -0.000990317 -0.0636148
v 0.138157 -0.000512626 -0.0533155
v 0.138157 -0.000512626 -0.0430162
v 0.138355 -0.000990317 -0.0533155
v 0.13867 -0.00140052 -0.0533155
v 0.13867 -0.00140052 -0.0636148
v 0.138355 -0.000990317 -0.0430162
v 0.137326 -0.00158451 -0.0430162
v 0.13867 -0.00140052 -0.0430162
v 0.137009 -0.000820201 -0.0430162
v 0.136901 -2.25172e-17 -0.0398472
v 0.137009 -0.000820201 -0.0398472
v 0.137326 -0.00158451 -0.0398472
v 0.0944371 -0.00336818 -0.0398472
v 0.0925357 -0.00321878 -0.0398472
v 0.0868316 -0.00275702 -0.0398472
v 0.0877822 -0.00283851 -0.0398472
v 0.088733 -0.00291999 -0.0398472
v 0.0906343 -0.00306939 -0.0398472
v 0.0944371 -0.00336818 -0.0873824
v 0.0925357 -0.00321878 -0.0873824
v 0.137669 -0.00138644 -0.0873824
v 0.0963385 -0.00351757 -0.0873824
v 0.137392 -0.000717676 -0.0873824
v 0.137392 -0.000717676 -0.0842134
v 0.137669 -0.00138644 -0.0842134
v 0.13811 -0.00196073 -0.0873824
v 0.102043 -0.00391143 -0.0873824
v 0.100141 -0.0037892 -0.0873824
v 0.0982399 -0.00365339 -0.0873824
v 0.0972892 -0.00358548 -0.0873824
v 0.0972892 -0.00358548 -0.0398472
v 0.0963385 -0.00351757 -0.0398472
v 0.0982399 -0.00365339 -0.0398472
v 0.100141 -0.0037892 -0.0398472
v 0.102043 -0.00391143 -0.0398472
v 0.103944 -0.00403367 -0.0398472
v 0.103944 -0.00403367 -0.0873824
v 0.105845 -0.0041559 -0.0873824
v 0.105845 -0.0041559 -0.0398472
v 0.13783 -0.00224083 -0.0398472
v 0.13783 -0.00224083 -0.0430162
v 0.138486 -0.00274445 -0.0430162
v 0.138486 -0.00274445 -0.0398472
v 0.113451 -0.0045226 -0.0398472
v 0.109648 -0.00435962 -0.0398472
v 0.106796 -0.00421022 -0.0398472
v 0.107747 -0.00426455 -0.0398472
v 0.113451 -0.0045226 -0.0873824
v 0.109648 -0.00435962 -0.0873824
v 0.138684 -0.00240139 -0.0873824
v 0.107747 -0.00426455 -0.0873824
v 0.106796 -0.00421022 -0.0873824
v 0.139353 -0.0026784 -0.0873824
v 0.117254 -0.00465841 -0.0873824
v 0.138684 -0.00240139 -0.0842134
v 0.115352 -0.00460408 -0.0873824
v 0.13811 -0.00196073 -0.0842134
v 0.13908 -0.00171528 -0.0842134
v 0.139558 -0.00191315 -0.0842134
v 0.139353 -0.0026784 -0.0842134
v 0.13908 -0.00171528 -0.0739141
v 0.139558 -0.00191315 -0.0739141
v 0.14007 -0.00198063 -0.0842134
v 0.14007 -0.00198063 -0.0739141
v 0.140583 -0.00191315 -0.0842134
v 0.140788 -0.0026784 -0.0842134
v 0.14007 -0.00277289 -0.0842134
v 0.140788 -0.0026784 -0.0873824
v 0.141457 -0.00240139 -0.0873824
v 0.141457 -0.00240139 -0.0842134
v 0.142031 -0.00196073 -0.0873824
v 0.145775 -0.00266195 -0.0873824
v 0.146725 -0.002336 -0.0873824
v 0.14625 -0.00251255 -0.0873824
v 0.14625 -0.00251255 -0.0398472
v 0.146725 -0.002336 -0.0398472
v 0.147201 -0.00214586 -0.0873824
v 0.147676 -0.00194214 -0.0873824
v 0.147201 -0.00214586 -0.0398472
v 0.142311 -0.00224083 -0.0398472
v 0.147676 -0.00194214 -0.0398472
v 0.142815 -0.00158451 -0.0398472
v 0.147866 -0.00184707 -0.0398472
v 0.147866 -0.00184707 -0.0873824
v 0.148056 -0.00173841 -0.0873824
v 0.148056 -0.00173841 -0.0398472
v 0.148246 -0.00162976 -0.0398472
v 0.148246 -0.00162976 -0.0873824
v 0.142472 -0.00138644 -0.0873824
v 0.148382 -0.00154828 -0.0873824
v 0.142031 -0.00196073 -0.0842134
v 0.142472 -0.00138644 -0.0842134
v 0.142749 -0.000717676 -0.0873824
v 0.149007 -0.00108651 -0.0873824
v 0.148437 -0.00152111 -0.0873824
v 0.148627 -0.0013853 -0.0873824
v 0.148722 -0.00131739 -0.0873824
v 0.148817 -0.00124949 -0.0873824
v 0.148858 -0.00120874 -0.0873824
v 0.148912 -0.001168 -0.0873824
v 0.149102 -0.00099144 -0.0873824
v 0.149007 -0.00108651 -0.0398472
v 0.148912 -0.001168 -0.0398472
v 0.143131 -0.000820201 -0.0398472
v 0.148858 -0.00120874 -0.0398472
v 0.148817 -0.00124949 -0.0398472
v 0.143131 -0.000820201 -0.0430162
v 0.143239 -1.97025e-17 -0.0430162
v 0.143239 -1.97025e-17 -0.0398472
v 0.149482 -0.000448185 -0.0398472
v 0.149387 -0.000624743 -0.0398472
v 0.149292 -0.000774138 -0.0398472
v 0.149197 -0.000882789 -0.0398472
v 0.149102 -0.00099144 -0.0398472
v 0.148722 -0.00131739 -0.0398472
v 0.148627 -0.0013853 -0.0398472
v 0.148437 -0.00152111 -0.0398472
v 0.148382 -0.00154828 -0.0398472
v 0.149197 -0.000882789 -0.0873824
v 0.149292 -0.000774138 -0.0873824
v 0.149387 -0.000624743 -0.0873824
v 0.149482 -0.000448185 -0.0873824
v 0.142843 -1.97025e-17 -0.0873824
v 0.149577 -1.82952e-17 -0.0873824
v 0.149482 0.000448185 -0.0873824
v 0.149577 -1.82952e-17 -0.0398472
v 0.149482 0.000448185 -0.0398472
v 0.149387 0.000624743 -0.0398472
v 0.143131 0.000820201 -0.0398472
v 0.149387 0.000624743 -0.0873824
v 0.142749 0.000717676 -0.0873824
v 0.149292 0.000774138 -0.0873824
v 0.149197 0.000882789 -0.0873824
v 0.149292 0.000774138 -0.0398472
v 0.149197 0.000882789 -0.0398472
v 0.149102 0.00099144 -0.0398472
v 0.149102 0.00099144 -0.0873824
v 0.149007 0.00108651 -0.0398472
v 0.149007 0.00108651 -0.0873824
v 0.142472 0.00138644 -0.0873824
v 0.148912 0.001168 -0.0873824
v 0.148858 0.00120874 -0.0873824
v 0.148912 0.001168 -0.0398472
v 0.148858 0.00120874 -0.0398472
v 0.148817 0.00124949 -0.0398472
v 0.148817 0.00124949 -0.0873824
v 0.148722 0.00131739 -0.0398472
v 0.142815 0.00158451 -0.0398472
v 0.148722 0.00131739 -0.0873824
v 0.148627 0.0013853 -0.0873824
v 0.148437 0.00152111 -0.0873824
v 0.148627 0.0013853 -0.0398472
v 0.148437 0.00152111 -0.0398472
v 0.148382 0.00154828 -0.0873824
v 0.148382 0.00154828 -0.0398472
v 0.148246 0.00162976 -0.0398472
v 0.148246 0.00162976 -0.0873824
v 0.148056 0.00173841 -0.0873824
v 0.142031 0.00196073 -0.0873824
v 0.147866 0.00184707 -0.0873824
v 0.148056 0.00173841 -0.0398472
v 0.147866 0.00184707 -0.0398472
v 0.147676 0.00194214 -0.0873824
v 0.147676 0.00194214 -0.0398472
v 0.147201 0.00214586 -0.0398472
v 0.142311 0.00224083 -0.0398472
v 0.147201 0.00214586 -0.0873824
v 0.146725 0.002336 -0.0873824
v 0.141457 0.00240139 -0.0873824
v 0.14625 0.00251255 -0.0873824
v 0.146725 0.002336 -0.0398472
v 0.14625 0.00251255 -0.0398472
v 0.145775 0.00266195 -0.0873824
v 0.145775 0.00266195 -0.0398472
v 0.144824 0.00293358 -0.0398472
v 0.141655 0.00274445 -0.0398472
v 0.144824 0.00293358 -0.0873824
v 0.14007 0.00277289 -0.0873824
v 0.143873 0.00316446 -0.0873824
v 0.140788 0.0026784 -0.0873824
v 0.14007 0.00277289 -0.0842134
v 0.139353 0.0026784 -0.0873824
v 0.140788 0.0026784 -0.0842134
v 0.14007 0.00385711 -0.0873824
v 0.142923 0.00336818 -0.0873824
v 0.142447 0.00346325 -0.0873824
v 0.141972 0.00354474 -0.0873824
v 0.141021 0.00370771 -0.0873824
v 0.138169 0.00408799 -0.0873824
v 0.14007 0.00385711 -0.0398472
v 0.141021 0.00370771 -0.0398472
v 0.14007 0.00316901 -0.0398472
v 0.141972 0.00354474 -0.0398472
v 0.142447 0.00346325 -0.0398472
v 0.142923 0.00336818 -0.0398472
v 0.140891 0.00306103 -0.0398472
v 0.143873 0.00316446 -0.0398472
v 0.14007 0.00316901 -0.0430162
v 0.140891 0.00306103 -0.0430162
v 0.140583 0.00191315 -0.0430162
v 0.141655 0.00274445 -0.0430162
v 0.14007 0.00198063 -0.0430162
v 0.13925 0.00306103 -0.0430162
v 0.139558 0.00191315 -0.0430162
v 0.14007 0.00198063 -0.0533155
v 0.139558 0.00191315 -0.0533155
v 0.139558 0.00191315 -0.0636148
v 0.14007 0.00198063 -0.0636148
v 0.140583 0.00191315 -0.0533155
v 0.139558 0.00191315 -0.0739141
v 0.14007 0.00198063 -0.0739141
v 0.140583 0.00191315 -0.0636148
v 0.139558 0.00191315 -0.0842134
v 0.13908 0.00171528 -0.0842134
v 0.13908 0.00171528 -0.0739141
v 0.13867 0.00140052 -0.0842134
v 0.13867 0.00140052 -0.0739141
v 0.13908 0.00171528 -0.0636148
v 0.13908 0.00171528 -0.0533155
v 0.13867 0.00140052 -0.0636148
v 0.13867 0.00140052 -0.0533155
v 0.138355 0.000990317 -0.0739141
v 0.13908 0.00171528 -0.0430162
v 0.13867 0.00140052 -0.0430162
v 0.13783 0.00224083 -0.0430162
v 0.138486 0.00274445 -0.0430162
v 0.138486 0.00274445 -0.0398472
v 0.13783 0.00224083 -0.0398472
v 0.103944 0.00403367 -0.0398472
v 0.105845 0.0041559 -0.0398472
v 0.113451 0.0045226 -0.0398472
v 0.109648 0.00435962 -0.0398472
v 0.107747 0.00426455 -0.0398472
v 0.106796 0.00421022 -0.0398472
v 0.103944 0.00403367 -0.0873824
v 0.105845 0.0041559 -0.0873824
v 0.106796 0.00421022 -0.0873824
v 0.13811 0.00196073 -0.0873824
v 0.107747 0.00426455 -0.0873824
v 0.138684 0.00240139 -0.0873824
v 0.109648 0.00435962 -0.0873824
v 0.113451 0.0045226 -0.0873824
v 0.115352 0.00460408 -0.0873824
v 0.115352 0.00460408 -0.0398472
v 0.117254 0.00465841 -0.0398472
v 0.121057 0.0047399 -0.0398472
v 0.117254 0.00465841 -0.0873824
v 0.121057 0.0047399 -0.0873824
v 0.122958 0.00475348 -0.0398472
v 0.122958 0.00475348 -0.0873824
v 0.124859 0.00475348 -0.0398472
v 0.12581 0.0047399 -0.0398472
v 0.124859 0.00475348 -0.0873824
v 0.126761 0.0047399 -0.0398472
v 0.12581 0.0047399 -0.0873824
v 0.128662 0.00469915 -0.0398472
v 0.13925 0.00306103 -0.0398472
v 0.138169 0.00408799 -0.0398472
v 0.136268 0.00427813 -0.0398472
v 0.135317 0.00435962 -0.0398472
v 0.134366 0.00442753 -0.0398472
v 0.132465 0.00454976 -0.0398472
v 0.130564 0.00463125 -0.0398472
v 0.130564 0.00463125 -0.0873824
v 0.128662 0.00469915 -0.0873824
v 0.132465 0.00454976 -0.0873824
v 0.134366 0.00442753 -0.0873824
v 0.135317 0.00435962 -0.0873824
v 0.136268 0.00427813 -0.0873824
v 0.126761 0.0047399 -0.0873824
v 0.138684 0.00240139 -0.0842134
v 0.139353 0.0026784 -0.0842134
v 0.14007 0.00198063 -0.0842134
v 0.140583 0.00191315 -0.0739141
v 0.140583 0.00191315 -0.0842134
v 0.141457 0.00240139 -0.0842134
v 0.141061 0.00171528 -0.0842134
v 0.141061 0.00171528 -0.0739141
v 0.142031 0.00196073 -0.0842134
v 0.142472 0.00138644 -0.0842134
v 0.141471 0.00140052 -0.0842134
v 0.141786 0.000990317 -0.0842134
v 0.141786 0.000990317 -0.0739141
v 0.141471 0.00140052 -0.0739141
v 0.141786 0.000990317 -0.0636148
v 0.141471 0.00140052 -0.0636148
v 0.141984 0.000512626 -0.0636148
v 0.141786 0.000990317 -0.0533155
v 0.141984 0.000512626 -0.0533155
v 0.142051 -2.11099e-17 -0.0430162
v 0.142051 -2.11099e-17 -0.0533155
v 0.141984 0.000512626 -0.0430162
v 0.141984 -0.000512626 -0.0430162
v 0.142051 -2.11099e-17 -0.0636148
v 0.141984 -0.000512626 -0.0533155
v 0.141786 -0.000990317 -0.0430162
v 0.142815 -0.00158451 -0.0430162
v 0.141471 -0.00140052 -0.0430162
v 0.141786 -0.000990317 -0.0533155
v 0.141984 -0.000512626 -0.0636148
v 0.141786 -0.000990317 -0.0636148
v 0.141471 -0.00140052 -0.0533155
v 0.141984 -0.000512626 -0.0739141
v 0.141786 -0.000990317 -0.0739141
v 0.141471 -0.00140052 -0.0636148
v 0.141984 -0.000512626 -0.0842134
v 0.142051 -2.11099e-17 -0.0842134
v 0.142051 -2.11099e-17 -0.0739141
v 0.141984 0.000512626 -0.0842134
v 0.141984 0.000512626 -0.0739141
v 0.142843 -1.97025e-17 -0.0842134
v 0.142749 0.000717676 -0.0842134
v 0.142749 -0.000717676 -0.0842134
v 0.141786 -0.000990317 -0.0842134
v 0.141471 -0.00140052 -0.0739141
v 0.141471 -0.00140052 -0.0842134
v 0.141061 -0.00171528 -0.0842134
v 0.141061 -0.00171528 -0.0739141
v 0.140583 -0.00191315 -0.0636148
v 0.140583 -0.00191315 -0.0739141
v 0.141061 -0.00171528 -0.0636148
v 0.140583 -0.00191315 -0.0533155
v 0.14007 -0.00198063 -0.0636148
v 0.14007 -0.00198063 -0.0533155
v 0.139558 -0.00191315 -0.0430162
v 0.139558 -0.00191315 -0.0533155
v 0.14007 -0.00198063 -0.0430162
v 0.13908 -0.00171528 -0.0430162
v 0.13908 -0.00171528 -0.0533155
v 0.139558 -0.00191315 -0.0636148
v 0.13908 -0.00171528 -0.0636148
v 0.13925 -0.00306103 -0.0430162
v 0.14007 -0.00316901 -0.0430162
v 0.140891 -0.00306103 -0.0430162
v 0.140583 -0.00191315 -0.0430162
v 0.13925 -0.00306103 -0.0398472
v 0.14007 -0.00316901 -0.0398472
v 0.14007 -0.00385711 -0.0398472
v 0.138169 -0.00408799 -0.0398472
v 0.136268 -0.00427813 -0.0398472
v 0.135317 -0.00435962 -0.0398472
v 0.134366 -0.00442753 -0.0398472
v 0.132465 -0.00454976 -0.0398472
v 0.130564 -0.00463125 -0.0398472
v 0.128662 -0.00469915 -0.0398472
v 0.12581 -0.0047399 -0.0398472
v 0.126761 -0.0047399 -0.0398472
v 0.126761 -0.0047399 -0.0873824
v 0.12581 -0.0047399 -0.0873824
v 0.124859 -0.00475348 -0.0398472
v 0.122958 -0.00475348 -0.0398472
v 0.124859 -0.00475348 -0.0873824
v 0.121057 -0.0047399 -0.0398472
v 0.122958 -0.00475348 -0.0873824
v 0.121057 -0.0047399 -0.0873824
v 0.117254 -0.00465841 -0.0398472
v 0.115352 -0.00460408 -0.0398472
v 0.130564 -0.00463125 -0.0873824
v 0.128662 -0.00469915 -0.0873824
v 0.132465 -0.00454976 -0.0873824
v 0.134366 -0.00442753 -0.0873824
v 0.135317 -0.00435962 -0.0873824
v 0.136268 -0.00427813 -0.0873824
v 0.138169 -0.00408799 -0.0873824
v 0.14007 -0.00385711 -0.0873824
v 0.141021 -0.00370771 -0.0873824
v 0.14007 -0.00277289 -0.0873824
v 0.144824 -0.00293358 -0.0873824
v 0.143873 -0.00316446 -0.0873824
v 0.142923 -0.00336818 -0.0873824
v 0.142447 -0.00346325 -0.0873824
v 0.141972 -0.00354474 -0.0873824
v 0.141972 -0.00354474 -0.0398472
v 0.141021 -0.00370771 -0.0398472
v 0.142447 -0.00346325 -0.0398472
v 0.142923 -0.00336818 -0.0398472
v 0.143873 -0.00316446 -0.0398472
v 0.140891 -0.00306103 -0.0398472
v 0.141655 -0.00274445 -0.0430162
v 0.141655 -0.00274445 -0.0398472
v 0.144824 -0.00293358 -0.0398472
v 0.145775 -0.00266195 -0.0398472
v 0.142311 -0.00224083 -0.0430162
v 0.141061 -0.00171528 -0.0430162
v 0.141061 -0.00171528 -0.0533155
v 0.141786 0.000990317 -0.0430162
v 0.143131 0.000820201 -0.0430162
v 0.142815 0.00158451 -0.0430162
v 0.142311 0.00224083 -0.0430162
v 0.141471 0.00140052 -0.0430162
v 0.141471 0.00140052 -0.0533155
v 0.141061 0.00171528 -0.0430162
v 0.141061 0.00171528 -0.0533155
v 0.141061 0.00171528 -0.0636148
v 0.13811 0.00196073 -0.0842134
v 0.137669 0.00138644 -0.0873824
v 0.137669 0.00138644 -0.0842134
v 0.102043 0.00391143 -0.0873824
v 0.100141 0.0037892 -0.0873824
v 0.0944371 0.00336818 -0.0873824
v 0.0963385 0.00351757 -0.0873824
v 0.137392 0.000717676 -0.0873824
v 0.0972892 0.00358548 -0.0873824
v 0.0982399 0.00365339 -0.0873824
v 0.137297 -2.25172e-17 -0.0873824
v 0.0868316 0.00275702 -0.0873824
v 0.137392 0.000717676 -0.0842134
v 0.0925357 0.00321878 -0.0873824
v 0.0877822 0.00283851 -0.0873824
v 0.088733 0.00291999 -0.0873824
v 0.0906343 0.00306939 -0.0873824
v 0.138355 0.000990317 -0.0842134
v 0.138157 0.000512626 -0.0842134
v 0.137297 -2.25172e-17 -0.0842134
v 0.0925357 0.00321878 -0.0398472
v 0.0944371 0.00336818 -0.0398472
v 0.0963385 0.00351757 -0.0398472
v 0.0972892 0.00358548 -0.0398472
v 0.0982399 0.00365339 -0.0398472
v 0.100141 0.0037892 -0.0398472
v 0.102043 0.00391143 -0.0398472
v 0.0906343 0.00306939 -0.0398472
v 0.088733 0.00291999 -0.0398472
v 0.0877822 0.00283851 -0.0398472
v 0.0868316 0.00275702 -0.0398472
v 0.0849301 0.00259404 -0.0873824
v 0.0849301 0.00259404 -0.0398472
v 0.0830288 0.00244465 -0.0873824
v 0.0830288 0.00244465 -0.0398472
v 0.0849301 -0.00259404 -0.0398472
v 0.0868316 -0.00275702 -0.0873824
v 0.0849301 -0.00259404 -0.0873824
v 0.0830288 -0.00244465 -0.0398472
v 0.0811274 0.00228167 -0.0398472
v 0.0811274 -0.00228167 -0.0398472
v 0.0830288 -0.00244465 -0.0873824
v 0.0792259 0.00211869 -0.0398472
v 0.0792259 -0.00211869 -0.0398472
v 0.0811274 -0.00228167 -0.0873824
v 0.0811274 0.00228167 -0.0873824
v 0.0792259 0.00211869 -0.0873824
v 0.0792259 -0.00211869 -0.0873824
v 0.0773246 -0.00195572 -0.0398472
v 0.0773246 0.00195572 -0.0873824
v 0.0773246 -0.00195572 -0.0873824
v 0.0754232 0.00179274 -0.0873824
v 0.0773246 0.00195572 -0.0398472
v 0.0754232 0.00179274 -0.0398472
v 0.0754232 -0.00179274 -0.0398472
v 0.0716204 0.00146679 -0.0398472
v 0.0716204 0.00146679 -0.0873824
v 0.0716204 -0.00146679 -0.0873824
v 0.069719 0.00130381 -0.0873824
v 0.0754232 -0.00179274 -0.0873824
v 0.0716204 -0.00146679 -0.0398472
v 0.069719 -0.00130381 -0.0873824
v 0.069719 -0.00130381 -0.0398472
v 0.069719 0.00130381 -0.0398472
v 0.0678177 -0.00114083 -0.0398472
v 0.0678177 0.00114083 -0.0398472
v 0.0678177 0.00114083 -0.0873824
v 0.0678177 -0.00114083 -0.0873824
v 0.0659162 0.000977858 -0.0873824
v 0.0659162 -0.000977858 -0.0873824
v 0.0659162 -0.000977858 -0.0398472
v 0.0640148 0.000814882 -0.0398472
v 0.0640148 -0.000814882 -0.0398472
v 0.0659162 0.000977858 -0.0398472
v 0.0640148 -0.000814882 -0.0873824
v 0.0621135 -0.000651906 -0.0398472
v 0.0621135 0.000651906 -0.0398472
v 0.0616381 0.000611161 -0.0873824
v 0.0616381 0.000611161 -0.0398472
v 0.0621135 0.000651906 -0.0873824
v 0.0621135 -0.000651906 -0.0873824
v 0.0640148 0.000814882 -0.0873824
v 0.0616381 -0.000611161 -0.0398472
v 0.0616381 -0.000611161 -0.0873824
v 0.060212 0.000488929 -0.0398472
v 0.060212 -0.000488929 -0.0398472
v 0.0592614 0.000407441 -0.0398472
v 0.0592614 0.000407441 -0.0873824
v 0.060212 0.000488929 -0.0873824
v 0.060212 -0.000488929 -0.0873824
v 0.0592614 -0.000407441 -0.0873824
v 0.0583107 0.000325953 -0.0873824
v 0.0583107 -0.000325953 -0.0873824
v 0.0568846 0.00020372 -0.0873824
v 0.0583107 0.000325953 -0.0398472
v 0.0583107 -0.000325953 -0.0398472
v 0.0568846 -0.00020372 -0.0398472
v 0.0568846 -0.00020372 -0.0873824
v 0.0564093 0.000162976 -0.0398472
v 0.0564093 -0.000162976 -0.0398472
v 0.0568846 0.00020372 -0.0398472
v 0.0556895 9.50696e-05 -0.0398472
v 0.0556895 9.50696e-05 -0.0873824
v 0.0564093 0.000162976 -0.0873824
v 0.0564093 -0.000162976 -0.0873824
v 0.0556895 -9.50696e-05 -0.0873824
v 0.0545079 -5.77003e-17 -0.0873824
v 0.0545079 -5.77003e-17 -0.0398472
v 0.0556895 -9.50696e-05 -0.0398472
v 0.0592614 -0.000407441 -0.0398472
v 0.0877822 -0.00283851 -0.0873824
v 0.088733 -0.00291999 -0.0873824
v 0.0906343 -0.00306939 -0.0873824
v 0.13867 -0.00140052 -0.0739141
v 0.13867 -0.00140052 -0.0842134
# </points>

# <faces count="1064">
g patch0
f 1 2 3
f 2 4 3
f 2 5 4
f 6 7 2
f 7 5 2
f 6 2 1
f 8 9 1
f 3 8 1
f 1 10 6
f 1 9 10
f 6 10 11
f 9 12 10
f 10 13 11
f 10 12 13
f 12 14 13
f 13 15 16
f 11 13 16
f 13 14 15
f 17 15 14
f 17 14 18
f 18 14 19
f 12 19 14
f 20 19 21
f 18 19 20
f 22 21 19
f 22 19 12
f 23 21 22
f 24 23 22
f 24 22 9
f 9 22 12
f 25 26 24
f 25 24 8
f 8 24 9
f 26 23 24
f 27 28 26
f 29 27 26
f 26 28 23
f 29 26 25
f 29 30 31
f 29 32 30
f 25 32 29
f 31 27 29
f 32 25 3
f 3 33 32
f 32 33 34
f 32 34 30
f 30 34 35
f 34 36 35
f 34 37 36
f 34 38 39
f 33 38 34
f 34 39 40
f 40 41 34
f 34 41 37
f 37 42 36
f 41 43 37
f 43 42 37
f 44 45 42
f 42 45 36
f 46 42 43
f 44 42 46
f 44 47 48
f 46 47 44
f 44 48 49
f 49 50 44
f 44 50 51
f 44 51 52
f 52 53 44
f 44 53 45
f 53 52 54
f 55 53 54
f 45 53 55
f 35 55 54
f 35 36 55
f 36 45 55
f 54 52 56
f 54 56 35
f 35 56 57
f 56 51 57
f 52 51 56
f 35 57 58
f 57 50 58
f 51 50 57
f 58 59 35
f 58 60 59
f 50 60 58
f 59 61 62
f 60 61 59
f 63 59 62
f 35 59 63
f 64 35 63
f 64 63 65
f 65 63 66
f 63 67 66
f 63 68 67
f 63 62 69
f 69 70 63
f 63 70 68
f 68 71 67
f 72 71 68
f 70 72 68
f 73 72 74
f 71 72 73
f 74 72 70
f 73 74 49
f 69 74 70
f 49 74 75
f 75 74 69
f 62 75 69
f 49 75 61
f 61 75 62
f 76 77 73
f 73 78 76
f 73 77 79
f 73 79 71
f 73 80 78
f 49 80 73
f 80 81 78
f 78 81 82
f 76 78 83
f 78 82 83
f 81 84 82
f 82 84 85
f 82 85 86
f 83 82 86
f 86 85 87
f 86 87 88
f 89 86 88
f 83 86 90
f 90 86 89
f 91 90 89
f 92 89 93
f 89 88 93
f 91 89 92
f 92 93 94
f 95 91 92
f 96 92 94
f 95 92 97
f 97 92 96
f 98 96 99
f 96 100 99
f 97 96 98
f 96 94 100
f 100 94 101
f 100 101 102
f 99 100 102
f 102 103 99
f 104 103 102
f 102 101 104
f 104 105 103
f 106 105 104
f 104 107 106
f 101 107 104
f 106 108 109
f 107 108 106
f 109 105 106
f 110 105 109
f 109 111 110
f 108 111 109
f 111 112 113
f 111 113 110
f 108 112 111
f 112 114 115
f 94 114 112
f 112 115 116
f 108 94 112
f 117 112 116
f 113 112 118
f 118 112 119
f 119 112 120
f 120 112 121
f 121 112 122
f 122 112 123
f 123 112 117
f 117 116 124
f 117 124 125
f 126 117 125
f 123 117 126
f 125 127 126
f 128 123 126
f 126 127 128
f 129 127 105
f 130 105 127
f 130 127 131
f 131 127 132
f 133 132 127
f 133 127 134
f 134 127 135
f 135 127 136
f 136 127 137
f 137 127 125
f 128 127 129
f 129 105 138
f 129 122 128
f 121 122 129
f 138 121 129
f 138 105 139
f 139 120 138
f 120 121 138
f 140 119 139
f 119 120 139
f 139 105 140
f 118 119 140
f 140 105 141
f 141 118 140
f 141 105 110
f 113 118 141
f 110 113 141
f 137 142 136
f 124 142 137
f 125 124 137
f 142 116 143
f 142 143 136
f 124 116 142
f 136 143 135
f 143 144 135
f 143 116 144
f 144 116 145
f 144 145 134
f 135 144 134
f 145 146 147
f 145 116 146
f 145 147 133
f 134 145 133
f 147 146 148
f 147 148 149
f 133 147 149
f 149 148 150
f 150 132 149
f 149 132 133
f 151 152 150
f 150 153 151
f 150 152 132
f 148 153 150
f 153 154 155
f 148 154 153
f 153 155 151
f 155 154 156
f 155 156 157
f 151 155 157
f 157 152 151
f 158 152 157
f 157 156 158
f 159 152 158
f 158 160 159
f 156 160 158
f 161 152 159
f 159 162 161
f 160 162 159
f 162 154 163
f 160 154 162
f 162 163 164
f 162 164 161
f 164 163 165
f 164 165 166
f 161 164 166
f 166 152 161
f 167 152 166
f 166 165 167
f 168 152 167
f 167 169 168
f 165 169 167
f 170 171 168
f 168 172 170
f 168 171 152
f 169 172 168
f 172 163 173
f 169 163 172
f 172 173 170
f 173 163 174
f 173 174 175
f 170 173 175
f 175 171 170
f 176 171 175
f 175 174 176
f 176 177 178
f 174 177 176
f 178 171 176
f 179 171 178
f 178 180 179
f 177 180 178
f 180 163 181
f 177 163 180
f 180 181 179
f 181 163 182
f 181 182 183
f 181 183 184
f 179 181 184
f 184 171 179
f 185 171 184
f 184 183 185
f 185 186 187
f 183 186 185
f 187 171 185
f 188 189 187
f 187 190 188
f 186 190 187
f 187 189 171
f 190 182 191
f 186 182 190
f 190 191 188
f 191 192 193
f 191 193 194
f 191 182 192
f 188 191 194
f 194 193 195
f 195 189 194
f 194 189 188
f 195 196 197
f 193 196 195
f 197 189 195
f 198 199 197
f 197 200 198
f 196 200 197
f 197 199 189
f 200 201 202
f 200 202 198
f 200 203 201
f 196 203 200
f 201 204 205
f 201 206 204
f 203 206 201
f 207 201 205
f 202 201 208
f 208 201 209
f 209 201 210
f 210 201 211
f 211 201 207
f 207 205 212
f 207 212 213
f 214 207 213
f 211 207 214
f 215 214 213
f 216 214 215
f 216 211 214
f 215 217 216
f 217 210 216
f 210 211 216
f 218 209 217
f 209 210 217
f 215 218 217
f 219 220 218
f 219 218 215
f 208 209 218
f 220 208 218
f 219 198 220
f 202 208 220
f 198 202 220
f 221 219 215
f 222 219 221
f 199 198 219
f 222 199 219
f 223 224 222
f 224 199 222
f 225 222 221
f 223 222 225
f 225 221 226
f 225 226 227
f 225 228 223
f 227 229 225
f 225 229 228
f 229 230 228
f 228 231 232
f 223 228 232
f 228 230 231
f 230 233 231
f 231 234 235
f 232 231 235
f 231 233 234
f 236 234 233
f 236 233 237
f 237 233 238
f 230 238 233
f 237 238 239
f 239 238 240
f 241 240 238
f 241 238 230
f 242 241 229
f 242 243 241
f 243 240 241
f 229 241 230
f 244 243 242
f 243 245 240
f 16 245 243
f 244 16 243
f 246 244 242
f 247 244 246
f 247 11 244
f 11 16 244
f 246 248 247
f 247 7 6
f 247 248 7
f 6 11 247
f 246 249 248
f 249 250 248
f 248 250 251
f 248 251 7
f 7 251 5
f 251 252 5
f 251 253 252
f 251 254 255
f 250 254 251
f 251 255 256
f 256 257 251
f 251 257 253
f 253 258 252
f 259 258 253
f 257 259 253
f 259 260 261
f 261 258 259
f 260 259 257
f 261 260 262
f 256 260 257
f 262 260 256
f 263 262 264
f 261 262 263
f 255 262 256
f 264 262 255
f 263 264 265
f 254 264 255
f 265 264 254
f 265 266 263
f 267 265 254
f 266 265 267
f 250 268 267
f 268 266 267
f 250 267 254
f 269 270 268
f 270 266 268
f 269 268 250
f 271 270 269
f 272 271 269
f 250 272 269
f 273 271 272
f 274 273 272
f 275 274 272
f 250 275 272
f 275 276 274
f 277 278 275
f 278 276 275
f 275 279 277
f 280 279 275
f 280 275 250
f 276 278 273
f 276 273 274
f 215 213 280
f 226 215 280
f 226 280 249
f 249 280 250
f 280 213 281
f 280 281 282
f 282 283 280
f 280 283 284
f 280 284 285
f 285 286 280
f 280 286 279
f 285 287 286
f 286 288 279
f 287 288 286
f 287 278 288
f 287 205 278
f 289 205 287
f 289 287 285
f 284 289 285
f 290 205 289
f 290 289 284
f 283 290 284
f 291 205 290
f 291 290 283
f 282 291 283
f 292 205 291
f 292 291 282
f 281 292 282
f 212 205 292
f 212 292 281
f 288 278 293
f 288 293 279
f 293 278 277
f 279 293 277
f 213 212 281
f 273 278 205
f 205 271 273
f 205 270 271
f 263 266 270
f 263 270 205
f 263 294 261
f 263 295 294
f 205 295 263
f 236 294 295
f 296 295 204
f 236 295 296
f 205 204 295
f 296 297 234
f 298 297 296
f 296 234 236
f 296 204 206
f 206 298 296
f 299 300 298
f 300 301 298
f 298 301 297
f 299 298 206
f 192 302 299
f 302 300 299
f 192 299 203
f 203 299 206
f 182 303 302
f 303 304 302
f 182 302 192
f 302 304 300
f 303 305 304
f 305 306 304
f 304 306 307
f 304 307 300
f 308 307 306
f 300 307 301
f 309 301 307
f 309 307 308
f 308 306 310
f 311 309 308
f 312 308 310
f 311 308 312
f 313 312 314
f 315 312 313
f 315 311 312
f 312 310 314
f 313 314 316
f 314 317 318
f 316 314 318
f 314 310 317
f 316 130 313
f 319 130 316
f 316 318 319
f 319 320 130
f 321 320 319
f 319 322 321
f 319 318 322
f 318 323 322
f 322 324 325
f 321 322 325
f 322 323 324
f 323 326 324
f 324 327 328
f 325 324 328
f 324 326 327
f 329 327 326
f 329 326 330
f 330 326 331
f 323 331 326
f 330 331 332
f 332 331 333
f 317 333 331
f 317 331 323
f 305 333 306
f 332 333 305
f 310 306 333
f 310 333 317
f 334 330 332
f 335 332 305
f 334 332 335
f 335 305 303
f 154 334 335
f 163 335 303
f 154 335 163
f 334 329 330
f 336 329 334
f 146 336 334
f 146 334 154
f 336 337 329
f 115 337 336
f 116 115 336
f 116 336 146
f 337 338 327
f 339 338 337
f 337 327 329
f 115 339 337
f 114 340 339
f 340 341 339
f 339 341 338
f 114 339 115
f 342 341 343
f 340 343 341
f 344 338 341
f 344 341 342
f 345 344 342
f 342 343 346
f 347 342 346
f 345 342 347
f 348 347 349
f 350 347 348
f 350 345 347
f 347 346 349
f 351 349 352
f 348 349 351
f 349 353 352
f 349 346 353
f 352 353 354
f 353 85 354
f 353 87 85
f 346 87 353
f 352 354 27
f 354 85 84
f 27 354 28
f 354 84 28
f 351 352 31
f 31 352 27
f 351 65 348
f 351 64 65
f 31 64 351
f 348 355 350
f 350 356 357
f 350 355 356
f 358 345 350
f 350 357 358
f 348 65 355
f 65 66 355
f 355 66 359
f 355 359 356
f 356 359 360
f 361 360 359
f 361 359 362
f 362 359 363
f 363 359 364
f 364 359 365
f 365 359 366
f 366 359 367
f 367 359 368
f 368 359 369
f 359 66 369
f 368 369 370
f 369 371 370
f 372 371 369
f 373 372 369
f 369 374 373
f 369 66 374
f 374 375 373
f 376 377 374
f 377 375 374
f 66 376 374
f 377 372 375
f 375 372 373
f 378 377 376
f 379 378 376
f 379 376 66
f 77 378 379
f 380 77 379
f 66 380 379
f 66 67 380
f 67 79 380
f 79 77 380
f 377 378 76
f 76 378 77
f 76 372 377
f 76 381 372
f 372 382 371
f 381 382 372
f 383 381 76
f 381 383 367
f 368 381 367
f 382 381 368
f 76 384 383
f 383 384 366
f 367 383 366
f 76 385 384
f 384 385 365
f 366 384 365
f 365 385 364
f 385 386 364
f 386 385 76
f 76 387 386
f 386 387 363
f 364 386 363
f 76 388 387
f 387 388 362
f 363 387 362
f 389 388 390
f 388 389 361
f 390 388 76
f 362 388 361
f 390 90 91
f 390 83 90
f 76 83 390
f 91 391 390
f 390 391 392
f 390 392 393
f 393 394 390
f 390 394 395
f 390 395 389
f 395 394 396
f 397 395 396
f 389 395 397
f 396 360 397
f 361 389 397
f 397 360 361
f 398 360 396
f 396 394 398
f 399 360 398
f 398 393 399
f 394 393 398
f 399 392 400
f 393 392 399
f 400 401 399
f 399 401 360
f 357 360 401
f 357 401 402
f 402 401 403
f 404 403 401
f 404 401 400
f 400 391 404
f 404 95 405
f 391 95 404
f 405 403 404
f 405 103 403
f 98 103 405
f 405 97 98
f 95 97 405
f 402 403 406
f 406 403 103
f 407 402 406
f 406 103 320
f 321 406 320
f 407 406 321
f 407 408 358
f 358 402 407
f 321 325 407
f 407 325 408
f 325 328 408
f 358 408 345
f 408 344 345
f 408 328 344
f 358 357 402
f 392 391 400
f 391 91 95
f 370 382 368
f 371 382 370
f 356 360 357
f 346 343 87
f 328 338 344
f 88 87 343
f 88 343 340
f 93 88 340
f 93 340 114
f 328 327 338
f 318 317 323
f 320 103 105
f 320 105 130
f 313 131 315
f 409 311 315
f 315 410 409
f 315 131 410
f 131 132 410
f 410 132 152
f 410 152 411
f 409 410 411
f 411 152 171
f 411 171 412
f 413 411 412
f 409 411 413
f 413 414 409
f 413 412 415
f 415 416 413
f 413 416 414
f 409 414 311
f 416 417 414
f 414 309 311
f 414 417 309
f 417 297 301
f 235 297 417
f 416 235 417
f 417 301 309
f 232 235 416
f 415 232 416
f 415 412 224
f 223 232 415
f 415 224 223
f 412 171 189
f 412 189 224
f 313 130 131
f 163 303 182
f 235 234 297
f 261 294 418
f 237 294 236
f 237 418 294
f 239 418 237
f 419 418 420
f 239 420 418
f 261 418 419
f 419 421 261
f 419 422 421
f 419 423 424
f 425 423 419
f 419 424 426
f 426 427 419
f 419 427 422
f 419 420 425
f 428 429 425
f 425 430 428
f 425 431 423
f 425 429 432
f 425 432 433
f 433 434 425
f 425 434 431
f 425 420 430
f 435 430 420
f 436 430 435
f 436 437 430
f 428 430 437
f 46 437 47
f 17 47 437
f 17 437 436
f 428 437 46
f 436 15 17
f 436 245 15
f 435 245 436
f 435 240 245
f 239 240 435
f 435 420 239
f 431 434 438
f 439 431 438
f 423 431 439
f 440 439 5
f 440 423 439
f 5 439 4
f 4 439 438
f 441 424 440
f 424 423 440
f 5 441 440
f 426 424 441
f 5 442 441
f 442 426 441
f 443 442 5
f 427 426 442
f 443 427 442
f 5 444 443
f 444 422 443
f 422 427 443
f 252 421 444
f 421 422 444
f 5 252 444
f 438 434 445
f 4 438 445
f 445 433 446
f 434 433 445
f 445 446 4
f 4 446 447
f 446 432 447
f 433 432 446
f 4 447 448
f 447 429 448
f 432 429 447
f 448 449 450
f 429 449 448
f 33 448 450
f 4 448 33
f 450 451 452
f 449 451 450
f 453 450 452
f 33 450 453
f 453 454 38
f 455 454 453
f 453 38 33
f 453 452 456
f 456 455 453
f 456 457 458
f 456 452 457
f 459 455 456
f 458 459 456
f 458 460 461
f 461 462 458
f 458 457 460
f 462 459 458
f 463 459 462
f 464 462 465
f 463 462 464
f 465 462 461
f 463 464 457
f 452 463 457
f 451 459 463
f 451 463 452
f 466 465 461
f 467 465 468
f 468 465 466
f 464 465 467
f 467 468 469
f 467 469 470
f 460 467 470
f 464 467 460
f 470 469 471
f 466 470 471
f 461 460 470
f 461 470 466
f 472 471 473
f 471 474 473
f 469 474 471
f 466 471 472
f 474 475 476
f 474 476 473
f 469 477 474
f 474 477 475
f 475 477 478
f 476 475 479
f 480 475 478
f 479 475 480
f 478 481 480
f 482 479 480
f 480 483 482
f 480 481 483
f 481 484 483
f 476 484 481
f 473 476 481
f 478 473 481
f 484 485 486
f 484 486 483
f 476 479 484
f 484 479 485
f 485 479 482
f 486 485 487
f 488 485 482
f 487 485 488
f 488 489 490
f 488 491 489
f 482 491 488
f 490 487 488
f 492 487 490
f 493 492 490
f 490 494 493
f 490 489 494
f 494 495 496
f 497 495 494
f 493 494 496
f 489 497 494
f 497 498 495
f 497 492 498
f 499 492 497
f 499 497 489
f 499 487 492
f 491 499 489
f 486 487 499
f 486 499 491
f 500 498 493
f 498 492 493
f 495 498 501
f 501 498 500
f 500 502 503
f 503 501 500
f 500 496 502
f 493 496 500
f 503 502 504
f 502 505 504
f 496 506 502
f 506 505 502
f 505 507 508
f 506 507 505
f 505 508 509
f 505 509 504
f 509 510 511
f 509 511 512
f 509 508 510
f 504 509 512
f 510 508 513
f 514 510 513
f 511 510 515
f 515 510 514
f 514 516 517
f 517 515 514
f 514 518 516
f 513 518 514
f 517 516 519
f 516 520 519
f 518 521 516
f 521 520 516
f 520 522 523
f 521 522 520
f 520 523 524
f 520 524 519
f 524 523 525
f 519 524 525
f 525 523 526
f 526 519 525
f 526 522 517
f 523 522 526
f 517 519 526
f 522 515 517
f 521 515 522
f 511 515 521
f 511 521 518
f 512 511 518
f 513 512 518
f 513 508 527
f 527 512 513
f 527 507 503
f 508 507 527
f 503 504 527
f 527 504 512
f 507 501 503
f 506 501 507
f 495 501 506
f 495 506 496
f 483 486 491
f 482 483 491
f 472 473 478
f 478 477 472
f 469 468 477
f 477 468 472
f 472 468 466
f 457 464 460
f 451 455 459
f 428 454 455
f 449 455 451
f 428 455 449
f 454 528 38
f 46 454 428
f 46 528 454
f 46 529 528
f 528 529 39
f 38 528 39
f 530 529 46
f 529 530 40
f 39 529 40
f 46 43 530
f 530 43 41
f 40 530 41
f 449 429 428
f 261 421 258
f 258 421 252
f 227 226 249
f 227 249 246
f 246 242 227
f 16 15 245
f 227 242 229
f 221 215 226
f 224 189 199
f 196 192 203
f 193 192 196
f 183 182 186
f 174 163 177
f 165 163 169
f 156 154 160
f 148 146 154
f 122 123 128
f 94 93 114
f 107 94 108
f 101 94 107
f 99 103 98
f 28 84 531
f 81 531 84
f 23 531 21
f 532 21 531
f 532 531 81
f 28 531 23
f 48 20 532
f 20 21 532
f 80 532 81
f 48 532 80
f 49 48 80
f 71 79 67
f 31 30 64
f 30 35 64
f 61 60 49
f 49 60 50
f 47 20 48
f 18 20 47
f 18 47 17
f 3 4 33
f 3 25 8
# </faces>
